<?xml version="1.0" encoding="UTF-8"?><svg id="Layer_1" xmlns="http://www.w3.org/2000/svg" xmlns:xlink="http://www.w3.org/1999/xlink" viewBox="0 0 413.29 394.71"><defs><style>.cls-1{stroke:#fff;stroke-width:1.25px;}.cls-1,.cls-2{stroke-miterlimit:10;}.cls-1,.cls-2,.cls-3,.cls-4,.cls-5{fill:none;}.cls-6{fill:#c1e2f7;}.cls-7{clip-path:url(#clippath-2);}.cls-8{fill:#d8e7d9;}.cls-9{clip-path:url(#clippath-6);}.cls-10{fill:#f3e0c8;}.cls-11{clip-path:url(#clippath-4);}.cls-2{stroke:#000;stroke-width:.25px;}.cls-12{clip-path:url(#clippath);}.cls-13{clip-path:url(#clippath-3);}.cls-4{stroke-width:.5px;}.cls-4,.cls-5{stroke:#231f20;stroke-miterlimit:22.93;}.cls-14{clip-path:url(#clippath-5);}.cls-5{stroke-width:.57px;}.cls-15{fill:#231f20;}</style><clipPath id="clippath"><rect class="cls-3" x="-120.36" y="-93.64" width="654" height="834"/></clipPath><clipPath id="clippath-2"><rect class="cls-3" x="4.49" y="4.39" width="404.3" height="385.46"/></clipPath><clipPath id="clippath-3"><rect class="cls-3" x="4.49" y="4.39" width="404.3" height="385.46"/></clipPath><clipPath id="clippath-4"><rect class="cls-3" x="4.49" y="4.39" width="404.3" height="385.46"/></clipPath><clipPath id="clippath-5"><rect class="cls-3" x="4.49" y="4.39" width="404.3" height="385.46"/></clipPath><clipPath id="clippath-6"><rect class="cls-3" x="-120.36" y="-93.64" width="654" height="834"/></clipPath></defs><g class="cls-12"><g class="cls-7"><path class="cls-10" d="M142.16,256.53c0-.97,.02-1.94,.04-2.91-39.91-22.74-66.93-65.49-67.4-114.59C32.95,161.52,4.49,205.7,4.49,256.53c0,73.63,59.69,133.32,133.32,133.32,25.19,0,48.74-6.99,68.83-19.12-38.65-23.35-64.48-65.75-64.48-114.19"/><path class="cls-10" d="M271.13,256.53c0-.44-.01-.88-.02-1.32-18.77,10.08-40.22,15.81-63.02,15.81-23.97,0-46.46-6.33-65.9-17.4-.02,.97-.04,1.94-.04,2.91,0,48.44,25.84,90.85,64.48,114.19,38.65-23.35,64.49-65.75,64.49-114.19"/><path class="cls-6" d="M206.64,142.34c20.09-12.14,43.65-19.12,68.83-19.12s46.46,6.33,65.9,17.41c.02-.97,.04-1.94,.04-2.91,0-73.63-59.69-133.32-133.32-133.32S74.77,64.08,74.77,137.71c0,.44,.01,.88,.02,1.32,18.77-10.08,40.22-15.81,63.02-15.81,25.19,0,48.74,6.99,68.83,19.12"/><path class="cls-6" d="M142.19,253.62c1.01-47.23,26.58-88.4,64.45-111.28-20.09-12.14-43.65-19.12-68.83-19.12-22.8,0-44.25,5.73-63.02,15.81,.48,49.1,27.49,91.85,67.4,114.59"/><path class="cls-8" d="M341.37,140.62c-1.06,49.6-29.22,92.53-70.26,114.59,0,.44,.02,.88,.02,1.32,0,48.44-25.84,90.85-64.48,114.19,20.09,12.14,43.65,19.12,68.83,19.12,73.63,0,133.32-59.69,133.32-133.32,0-49.66-27.15-92.97-67.42-115.91"/><path class="cls-8" d="M206.64,142.34c38.29,23.13,64,64.98,64.47,112.87,41.04-22.06,69.2-64.99,70.26-114.59-19.44-11.07-41.93-17.41-65.9-17.41-25.19,0-48.74,6.99-68.83,19.12"/></g><g><path class="cls-15" d="M180.57,35.87h-3.14v2.91h3.5v.88h-4.55v-8.08h4.37v.88h-3.32v2.55h3.14v.86Z"/><path class="cls-15" d="M186.72,39.66l-1.03-1.79c-.42-.68-.68-1.13-.94-1.6h-.02c-.23,.47-.46,.9-.88,1.61l-.97,1.77h-1.2l2.47-4.09-2.38-3.99h1.21l1.07,1.9c.3,.53,.53,.94,.74,1.37h.04c.23-.48,.43-.85,.73-1.37l1.1-1.9h1.2l-2.46,3.93,2.52,4.15h-1.21Z"/><path class="cls-15" d="M189.14,31.68c.5-.08,1.16-.16,2-.16,1.03,0,1.79,.24,2.27,.67,.44,.38,.71,.97,.71,1.69s-.22,1.31-.62,1.73c-.55,.59-1.45,.89-2.47,.89-.31,0-.6-.01-.84-.07v3.24h-1.04v-7.99Zm1.04,3.9c.23,.06,.52,.08,.86,.08,1.26,0,2.03-.61,2.03-1.73s-.76-1.58-1.91-1.58c-.46,0-.8,.04-.98,.08v3.14Z"/><path class="cls-15" d="M199.71,35.87h-3.14v2.91h3.5v.88h-4.55v-8.08h4.37v.88h-3.32v2.55h3.14v.86Z"/><path class="cls-15" d="M201.43,31.69c.53-.11,1.28-.17,2-.17,1.12,0,1.83,.2,2.34,.66,.41,.36,.64,.91,.64,1.54,0,1.07-.67,1.77-1.52,2.06v.04c.62,.22,1,.79,1.19,1.63,.26,1.13,.46,1.91,.62,2.22h-1.08c-.13-.23-.31-.92-.54-1.93-.24-1.12-.67-1.54-1.62-1.57h-.98v3.5h-1.04v-7.98Zm1.04,3.68h1.07c1.12,0,1.82-.61,1.82-1.54,0-1.04-.76-1.5-1.86-1.51-.5,0-.86,.05-1.03,.1v2.95Z"/><path class="cls-15" d="M208.93,31.58v8.08h-1.04v-8.08h1.04Z"/><path class="cls-15" d="M214.94,35.87h-3.14v2.91h3.5v.88h-4.55v-8.08h4.37v.88h-3.32v2.55h3.14v.86Z"/><path class="cls-15" d="M216.66,39.66v-8.08h1.14l2.59,4.09c.6,.95,1.07,1.8,1.45,2.63h.02c-.1-1.09-.12-2.07-.12-3.33v-3.38h.98v8.08h-1.06l-2.57-4.1c-.56-.9-1.1-1.82-1.51-2.7h-.04c.06,1.03,.08,2,.08,3.35v3.45h-.98Z"/><path class="cls-15" d="M230.2,39.4c-.38,.19-1.15,.38-2.13,.38-2.28,0-3.99-1.44-3.99-4.09s1.71-4.25,4.22-4.25c1.01,0,1.64,.22,1.92,.36l-.25,.85c-.4-.19-.96-.34-1.63-.34-1.89,0-3.15,1.21-3.15,3.33,0,1.98,1.14,3.25,3.11,3.25,.64,0,1.28-.13,1.7-.34l.22,.83Z"/><path class="cls-15" d="M235.7,35.87h-3.14v2.91h3.5v.88h-4.55v-8.08h4.37v.88h-3.32v2.55h3.14v.86Z"/></g><g><path class="cls-15" d="M152.1,51.75c.44-.08,1.05-.14,1.88-.14,.9,0,1.56,.19,1.99,.55,.4,.33,.66,.86,.66,1.49s-.2,1.17-.58,1.53c-.49,.49-1.26,.72-2.13,.72-.23,0-.44-.01-.6-.04v2.54h-1.22v-6.65Zm1.22,3.14c.15,.04,.35,.05,.6,.05,.92,0,1.48-.45,1.48-1.24s-.52-1.15-1.37-1.15c-.34,0-.58,.03-.71,.06v2.28Z"/><path class="cls-15" d="M162.02,55.92c0,1.79-1.26,2.59-2.5,2.59-1.38,0-2.44-.95-2.44-2.51s1.05-2.58,2.52-2.58,2.42,1.02,2.42,2.5Zm-3.67,.05c0,.94,.46,1.65,1.21,1.65,.7,0,1.19-.69,1.19-1.67,0-.76-.34-1.63-1.18-1.63s-1.22,.84-1.22,1.65Z"/><path class="cls-15" d="M163.7,53.53l.51,2.21c.11,.52,.22,1.05,.31,1.58h.02c.1-.53,.26-1.07,.4-1.57l.63-2.22h1l.61,2.16c.15,.57,.28,1.1,.39,1.63h.02c.08-.53,.19-1.06,.32-1.63l.54-2.16h1.21l-1.53,4.87h-1.14l-.58-1.98c-.15-.51-.26-.97-.37-1.56h-.02c-.1,.6-.23,1.08-.37,1.56l-.62,1.98h-1.15l-1.44-4.87h1.26Z"/><path class="cls-15" d="M171.2,56.31c.03,.88,.72,1.26,1.5,1.26,.57,0,.98-.08,1.35-.22l.18,.85c-.42,.17-1,.3-1.7,.3-1.58,0-2.51-.97-2.51-2.46,0-1.35,.82-2.62,2.38-2.62s2.1,1.3,2.1,2.37c0,.23-.02,.41-.04,.52h-3.26Zm2.14-.86c0-.45-.19-1.19-1.01-1.19-.76,0-1.08,.69-1.13,1.19h2.14Z"/><path class="cls-15" d="M175.49,55.1c0-.66,0-1.13-.04-1.57h1.07l.04,.93h.04c.24-.69,.81-1.04,1.33-1.04,.12,0,.19,0,.29,.03v1.16c-.1-.02-.21-.04-.36-.04-.59,0-.99,.38-1.1,.93-.02,.11-.04,.24-.04,.38v2.52h-1.23v-3.3Z"/><path class="cls-15" d="M180.36,52.17c0,.37-.27,.66-.7,.66s-.68-.29-.68-.66,.28-.67,.69-.67,.68,.29,.69,.67Zm-1.31,6.23v-4.87h1.24v4.87h-1.24Z"/><path class="cls-15" d="M181.61,54.98c0-.56,0-1.03-.04-1.45h1.08l.06,.73h.03c.21-.38,.74-.84,1.55-.84,.85,0,1.73,.55,1.73,2.09v2.89h-1.23v-2.75c0-.7-.26-1.23-.93-1.23-.49,0-.83,.35-.96,.72-.04,.11-.05,.26-.05,.4v2.86h-1.24v-3.42Z"/><path class="cls-15" d="M191.77,53.53c-.02,.33-.04,.73-.04,1.4v2.76c0,1.02-.21,1.75-.72,2.21-.51,.45-1.21,.59-1.88,.59-.62,0-1.28-.13-1.7-.39l.27-.93c.31,.18,.83,.37,1.42,.37,.8,0,1.4-.42,1.4-1.47v-.42h-.02c-.28,.43-.78,.72-1.42,.72-1.21,0-2.07-1-2.07-2.38,0-1.6,1.04-2.57,2.21-2.57,.74,0,1.18,.36,1.41,.76h.02l.05-.65h1.07Zm-1.27,1.95c0-.11,0-.23-.04-.33-.13-.45-.48-.79-1-.79-.69,0-1.2,.6-1.2,1.59,0,.83,.42,1.5,1.19,1.5,.46,0,.86-.3,1-.74,.03-.13,.05-.3,.05-.44v-.79Z"/><path class="cls-15" d="M196.54,52.14v1.39h1.17v.92h-1.17v2.15c0,.59,.16,.9,.63,.9,.21,0,.37-.03,.48-.06l.02,.94c-.18,.07-.5,.12-.89,.12-.45,0-.83-.15-1.06-.4-.26-.28-.38-.72-.38-1.36v-2.29h-.7v-.92h.7v-1.1l1.2-.29Z"/><path class="cls-15" d="M198.64,51.3h1.24v2.9h.02c.15-.23,.35-.42,.61-.56,.24-.14,.53-.22,.84-.22,.83,0,1.7,.55,1.7,2.11v2.87h-1.23v-2.73c0-.71-.26-1.24-.94-1.24-.48,0-.82,.32-.95,.69-.04,.1-.05,.23-.05,.37v2.91h-1.24v-7.1Z"/><path class="cls-15" d="M205.23,56.31c.03,.88,.72,1.26,1.5,1.26,.57,0,.98-.08,1.35-.22l.18,.85c-.42,.17-1,.3-1.7,.3-1.58,0-2.51-.97-2.51-2.46,0-1.35,.82-2.62,2.38-2.62s2.1,1.3,2.1,2.37c0,.23-.02,.41-.04,.52h-3.26Zm2.14-.86c0-.45-.19-1.19-1.01-1.19-.76,0-1.08,.69-1.13,1.19h2.14Z"/><path class="cls-15" d="M211.55,58.39c.02-.33,.04-.87,.04-1.37v-5.73h1.23v2.9h.02c.3-.47,.83-.78,1.56-.78,1.19,0,2.04,.99,2.03,2.47,0,1.75-1.11,2.62-2.21,2.62-.63,0-1.19-.24-1.54-.84h-.02l-.06,.73h-1.05Zm1.27-2.01c0,.1,.01,.2,.03,.29,.13,.49,.56,.86,1.09,.86,.77,0,1.24-.62,1.24-1.6,0-.86-.41-1.56-1.23-1.56-.5,0-.95,.36-1.09,.9-.02,.09-.04,.2-.04,.32v.79Z"/><path class="cls-15" d="M218.31,56.31c.03,.88,.72,1.26,1.5,1.26,.57,0,.98-.08,1.35-.22l.18,.85c-.42,.17-1,.3-1.7,.3-1.58,0-2.51-.97-2.51-2.46,0-1.35,.82-2.62,2.38-2.62s2.1,1.3,2.1,2.37c0,.23-.02,.41-.04,.52h-3.26Zm2.14-.86c0-.45-.19-1.19-1.01-1.19-.76,0-1.08,.69-1.13,1.19h2.14Z"/><path class="cls-15" d="M222.54,57.26c.28,.17,.81,.35,1.25,.35,.54,0,.78-.22,.78-.54s-.2-.5-.8-.71c-.95-.33-1.35-.85-1.34-1.42,0-.86,.71-1.53,1.84-1.53,.54,0,1.01,.14,1.29,.29l-.24,.87c-.21-.12-.6-.28-1.03-.28s-.68,.21-.68,.51,.23,.46,.85,.68c.88,.32,1.29,.77,1.3,1.49,0,.88-.69,1.52-1.98,1.52-.59,0-1.12-.14-1.48-.34l.24-.89Z"/><path class="cls-15" d="M228.18,52.14v1.39h1.17v.92h-1.17v2.15c0,.59,.16,.9,.63,.9,.21,0,.37-.03,.48-.06l.02,.94c-.18,.07-.5,.12-.89,.12-.45,0-.83-.15-1.06-.4-.26-.28-.38-.72-.38-1.36v-2.29h-.7v-.92h.7v-1.1l1.2-.29Z"/><path class="cls-15" d="M232.45,55.31v.85h-2.55v-.85h2.55Z"/><path class="cls-15" d="M234.72,52.17c0,.37-.27,.66-.7,.66s-.68-.29-.68-.66,.28-.67,.69-.67,.68,.29,.69,.67Zm-1.31,6.23v-4.87h1.24v4.87h-1.24Z"/><path class="cls-15" d="M235.97,54.98c0-.56,0-1.03-.04-1.45h1.08l.06,.73h.03c.21-.38,.74-.84,1.55-.84,.85,0,1.73,.55,1.73,2.09v2.89h-1.23v-2.75c0-.7-.26-1.23-.93-1.23-.49,0-.83,.35-.96,.72-.04,.11-.05,.26-.05,.4v2.86h-1.24v-3.42Z"/><path class="cls-15" d="M243.88,55.31v.85h-2.55v-.85h2.55Z"/><path class="cls-15" d="M248.58,58.24c-.26,.12-.77,.25-1.38,.25-1.52,0-2.51-.97-2.51-2.48s1-2.6,2.71-2.6c.45,0,.91,.1,1.19,.23l-.22,.92c-.2-.09-.49-.19-.93-.19-.94,0-1.5,.69-1.49,1.58,0,1,.65,1.57,1.49,1.57,.43,0,.73-.09,.97-.19l.17,.91Z"/><path class="cls-15" d="M249.5,51.3h1.24v7.1h-1.24v-7.1Z"/><path class="cls-15" d="M254.8,58.39l-.08-.54h-.03c-.3,.38-.81,.65-1.44,.65-.98,0-1.53-.71-1.53-1.45,0-1.23,1.09-1.85,2.89-1.84v-.08c0-.32-.13-.85-.99-.85-.48,0-.98,.15-1.31,.36l-.24-.8c.36-.22,.99-.43,1.76-.43,1.56,0,2.01,.99,2.01,2.05v1.76c0,.44,.02,.87,.07,1.17h-1.11Zm-.16-2.38c-.87-.02-1.7,.17-1.7,.91,0,.48,.31,.7,.7,.7,.49,0,.85-.32,.96-.67,.03-.09,.04-.19,.04-.27v-.67Z"/><path class="cls-15" d="M257.09,57.26c.28,.17,.81,.35,1.25,.35,.54,0,.78-.22,.78-.54s-.2-.5-.8-.71c-.95-.33-1.35-.85-1.34-1.42,0-.86,.71-1.53,1.84-1.53,.54,0,1.01,.14,1.29,.29l-.24,.87c-.21-.12-.6-.28-1.03-.28s-.68,.21-.68,.51,.23,.46,.85,.68c.88,.32,1.29,.77,1.3,1.49,0,.88-.69,1.52-1.98,1.52-.59,0-1.12-.14-1.48-.34l.24-.89Z"/><path class="cls-15" d="M261.26,57.26c.28,.17,.81,.35,1.25,.35,.54,0,.78-.22,.78-.54s-.2-.5-.8-.71c-.95-.33-1.35-.85-1.34-1.42,0-.86,.71-1.53,1.84-1.53,.54,0,1.01,.14,1.29,.29l-.24,.87c-.21-.12-.6-.28-1.03-.28s-.68,.21-.68,.51,.23,.46,.85,.68c.88,.32,1.29,.77,1.3,1.49,0,.88-.69,1.52-1.98,1.52-.59,0-1.12-.14-1.48-.34l.24-.89Z"/></g><g><path class="cls-15" d="M176.91,68.94c0,.58,.02,1.06,.04,1.46h-1.08l-.06-.74h-.02c-.21,.35-.69,.85-1.56,.85s-1.7-.53-1.7-2.12v-2.86h1.23v2.65c0,.81,.26,1.33,.91,1.33,.49,0,.81-.35,.94-.66,.04-.11,.07-.24,.07-.38v-2.94h1.23v3.41Z"/><path class="cls-15" d="M178.18,69.26c.28,.17,.81,.35,1.25,.35,.54,0,.78-.22,.78-.54s-.2-.5-.8-.71c-.95-.33-1.35-.85-1.34-1.42,0-.86,.71-1.53,1.84-1.53,.54,0,1.01,.14,1.29,.29l-.24,.87c-.21-.12-.6-.28-1.03-.28s-.68,.21-.68,.51,.23,.46,.85,.68c.88,.32,1.29,.77,1.3,1.49,0,.88-.69,1.52-1.98,1.52-.59,0-1.12-.14-1.48-.34l.24-.89Z"/><path class="cls-15" d="M183.28,68.31c.03,.88,.72,1.26,1.5,1.26,.57,0,.98-.08,1.35-.22l.18,.85c-.42,.17-1,.3-1.7,.3-1.58,0-2.51-.97-2.51-2.46,0-1.35,.82-2.62,2.38-2.62s2.1,1.3,2.1,2.37c0,.23-.02,.41-.04,.52h-3.26Zm2.14-.86c0-.45-.19-1.19-1.01-1.19-.76,0-1.08,.69-1.13,1.19h2.14Z"/><path class="cls-15" d="M187.57,67.1c0-.66,0-1.13-.04-1.57h1.07l.04,.93h.04c.24-.69,.81-1.04,1.33-1.04,.12,0,.19,0,.29,.03v1.16c-.1-.02-.21-.04-.36-.04-.59,0-.99,.38-1.1,.93-.02,.11-.04,.24-.04,.38v2.52h-1.23v-3.3Z"/><path class="cls-15" d="M194.07,68.31c.03,.88,.72,1.26,1.5,1.26,.57,0,.98-.08,1.35-.22l.18,.85c-.42,.17-1,.3-1.7,.3-1.58,0-2.51-.97-2.51-2.46,0-1.35,.82-2.62,2.38-2.62s2.1,1.3,2.1,2.37c0,.23-.02,.41-.04,.52h-3.26Zm2.14-.86c0-.45-.19-1.19-1.01-1.19-.76,0-1.08,.69-1.13,1.19h2.14Z"/><path class="cls-15" d="M199.11,65.53l.58,.92c.16,.26,.3,.5,.44,.75h.03c.14-.27,.28-.52,.42-.77l.54-.9h1.34l-1.63,2.34,1.66,2.53h-1.39l-.6-.97c-.16-.26-.3-.52-.44-.79h-.02c-.14,.28-.28,.52-.44,.79l-.56,.97h-1.36l1.69-2.48-1.63-2.39h1.37Z"/><path class="cls-15" d="M203.23,67.15c0-.64-.02-1.16-.04-1.62h1.08l.06,.75h.02c.36-.55,.93-.86,1.67-.86,1.12,0,2.05,.96,2.05,2.48,0,1.76-1.11,2.61-2.22,2.61-.61,0-1.12-.26-1.37-.65h-.02v2.52h-1.23v-5.23Zm1.23,1.21c0,.12,.01,.23,.04,.34,.12,.5,.56,.86,1.08,.86,.78,0,1.24-.65,1.24-1.61,0-.86-.42-1.56-1.21-1.56-.51,0-.98,.37-1.1,.91-.03,.1-.05,.21-.05,.31v.75Z"/><path class="cls-15" d="M209.95,68.31c.03,.88,.72,1.26,1.5,1.26,.57,0,.98-.08,1.35-.22l.18,.85c-.42,.17-1,.3-1.7,.3-1.58,0-2.51-.97-2.51-2.46,0-1.35,.82-2.62,2.38-2.62s2.1,1.3,2.1,2.37c0,.23-.02,.41-.04,.52h-3.26Zm2.14-.86c0-.45-.19-1.19-1.01-1.19-.76,0-1.08,.69-1.13,1.19h2.14Z"/><path class="cls-15" d="M214.24,67.1c0-.66,0-1.13-.04-1.57h1.07l.04,.93h.04c.24-.69,.81-1.04,1.33-1.04,.12,0,.19,0,.29,.03v1.16c-.1-.02-.21-.04-.36-.04-.59,0-.99,.38-1.1,.93-.02,.11-.04,.24-.04,.38v2.52h-1.23v-3.3Z"/><path class="cls-15" d="M219.11,64.17c0,.37-.27,.66-.7,.66s-.68-.29-.68-.66,.28-.67,.69-.67,.68,.29,.69,.67Zm-1.31,6.23v-4.87h1.24v4.87h-1.24Z"/><path class="cls-15" d="M221.23,68.31c.03,.88,.72,1.26,1.5,1.26,.57,0,.98-.08,1.35-.22l.18,.85c-.42,.17-1,.3-1.7,.3-1.58,0-2.51-.97-2.51-2.46,0-1.35,.82-2.62,2.38-2.62s2.1,1.3,2.1,2.37c0,.23-.02,.41-.04,.52h-3.26Zm2.14-.86c0-.45-.19-1.19-1.01-1.19-.76,0-1.08,.69-1.13,1.19h2.14Z"/><path class="cls-15" d="M225.52,66.98c0-.56,0-1.03-.04-1.45h1.08l.06,.73h.03c.21-.38,.74-.84,1.55-.84,.85,0,1.73,.55,1.73,2.09v2.89h-1.23v-2.75c0-.7-.26-1.23-.93-1.23-.49,0-.83,.35-.96,.72-.04,.11-.05,.26-.05,.4v2.86h-1.24v-3.42Z"/><path class="cls-15" d="M234.81,70.24c-.26,.12-.77,.25-1.38,.25-1.52,0-2.51-.97-2.51-2.48s1-2.6,2.71-2.6c.45,0,.91,.1,1.19,.23l-.22,.92c-.2-.09-.49-.19-.93-.19-.94,0-1.5,.69-1.49,1.58,0,1,.65,1.57,1.49,1.57,.43,0,.73-.09,.97-.19l.17,.91Z"/><path class="cls-15" d="M236.52,68.31c.03,.88,.72,1.26,1.5,1.26,.57,0,.98-.08,1.35-.22l.18,.85c-.42,.17-1,.3-1.7,.3-1.58,0-2.51-.97-2.51-2.46,0-1.35,.82-2.62,2.38-2.62s2.1,1.3,2.1,2.37c0,.23-.02,.41-.04,.52h-3.26Zm2.14-.86c0-.45-.19-1.19-1.01-1.19-.76,0-1.08,.69-1.13,1.19h2.14Z"/><path class="cls-15" d="M240.75,69.26c.28,.17,.81,.35,1.25,.35,.54,0,.78-.22,.78-.54s-.2-.5-.8-.71c-.95-.33-1.35-.85-1.34-1.42,0-.86,.71-1.53,1.84-1.53,.54,0,1.01,.14,1.29,.29l-.24,.87c-.21-.12-.6-.28-1.03-.28s-.68,.21-.68,.51,.23,.46,.85,.68c.88,.32,1.29,.77,1.3,1.49,0,.88-.69,1.52-1.98,1.52-.59,0-1.12-.14-1.48-.34l.24-.89Z"/></g><g><path class="cls-15" d="M157.27,82.39v-6.74h.95l2.16,3.41c.5,.79,.89,1.5,1.21,2.19h.02c-.08-.91-.1-1.73-.1-2.78v-2.82h.82v6.74h-.88l-2.14-3.42c-.47-.75-.92-1.52-1.26-2.25h-.03c.05,.86,.07,1.67,.07,2.79v2.88h-.82Z"/><path class="cls-15" d="M163.85,75.74c.42-.07,.97-.13,1.67-.13,.86,0,1.49,.2,1.89,.56,.37,.32,.59,.81,.59,1.41s-.18,1.09-.52,1.44c-.46,.49-1.21,.74-2.06,.74-.26,0-.5,0-.7-.06v2.7h-.87v-6.66Zm.87,3.25c.19,.05,.43,.07,.72,.07,1.05,0,1.69-.51,1.69-1.44s-.63-1.32-1.59-1.32c-.38,0-.67,.03-.82,.07v2.62Z"/><path class="cls-15" d="M169.05,81.33c.39,.24,.96,.44,1.56,.44,.89,0,1.41-.47,1.41-1.15,0-.63-.36-.99-1.27-1.34-1.1-.39-1.78-.96-1.78-1.91,0-1.05,.87-1.83,2.18-1.83,.69,0,1.19,.16,1.49,.33l-.24,.71c-.22-.12-.67-.32-1.28-.32-.92,0-1.27,.55-1.27,1.01,0,.63,.41,.94,1.34,1.3,1.14,.44,1.72,.99,1.72,1.98,0,1.04-.77,1.94-2.36,1.94-.65,0-1.36-.19-1.72-.43l.22-.73Z"/><path class="cls-15" d="M173.5,83.62c.22-.59,.49-1.66,.6-2.39l.98-.1c-.23,.85-.67,1.96-.95,2.43l-.63,.06Z"/><path class="cls-15" d="M181.71,82.21c-.23,.12-.74,.28-1.39,.28-1.46,0-2.41-.99-2.41-2.47s1.02-2.57,2.6-2.57c.52,0,.98,.13,1.22,.25l-.2,.68c-.21-.12-.54-.23-1.02-.23-1.11,0-1.71,.82-1.71,1.83,0,1.12,.72,1.81,1.68,1.81,.5,0,.83-.13,1.08-.24l.15,.66Z"/><path class="cls-15" d="M186.79,81.07c0,.5,0,.94,.04,1.32h-.78l-.05-.79h-.02c-.23,.39-.74,.9-1.6,.9-.76,0-1.67-.42-1.67-2.12v-2.83h.88v2.68c0,.92,.28,1.54,1.08,1.54,.59,0,1-.41,1.16-.8,.05-.13,.08-.29,.08-.45v-2.97h.88v3.52Z"/><path class="cls-15" d="M188.13,81.49c.26,.17,.72,.35,1.16,.35,.64,0,.94-.32,.94-.72,0-.42-.25-.65-.9-.89-.87-.31-1.28-.79-1.28-1.37,0-.78,.63-1.42,1.67-1.42,.49,0,.92,.14,1.19,.3l-.22,.64c-.19-.12-.54-.28-.99-.28-.52,0-.81,.3-.81,.66,0,.4,.29,.58,.92,.82,.84,.32,1.27,.74,1.27,1.46,0,.85-.66,1.45-1.81,1.45-.53,0-1.02-.13-1.36-.33l.22-.67Z"/><path class="cls-15" d="M193.27,76.17v1.39h1.26v.67h-1.26v2.61c0,.6,.17,.94,.66,.94,.23,0,.4-.03,.51-.06l.04,.66c-.17,.07-.44,.12-.78,.12-.41,0-.74-.13-.95-.37-.25-.26-.34-.69-.34-1.26v-2.64h-.75v-.67h.75v-1.16l.86-.23Z"/><path class="cls-15" d="M199.85,79.94c0,1.79-1.24,2.57-2.41,2.57-1.31,0-2.32-.96-2.32-2.49,0-1.62,1.06-2.57,2.4-2.57s2.33,1.01,2.33,2.49Zm-3.84,.05c0,1.06,.61,1.86,1.47,1.86s1.47-.79,1.47-1.88c0-.82-.41-1.86-1.45-1.86s-1.49,.96-1.49,1.88Z"/><path class="cls-15" d="M200.96,78.87c0-.5,0-.91-.04-1.31h.77l.04,.78h.03c.27-.46,.72-.89,1.52-.89,.66,0,1.16,.4,1.37,.97h.02c.15-.27,.34-.48,.54-.63,.29-.22,.61-.34,1.07-.34,.64,0,1.59,.42,1.59,2.1v2.85h-.86v-2.74c0-.93-.34-1.49-1.05-1.49-.5,0-.89,.37-1.04,.8-.04,.12-.07,.28-.07,.44v2.99h-.86v-2.9c0-.77-.34-1.33-1.01-1.33-.55,0-.95,.44-1.09,.88-.05,.13-.07,.28-.07,.43v2.92h-.86v-3.53Z"/><path class="cls-15" d="M209.79,80.14c.02,1.19,.78,1.68,1.66,1.68,.63,0,1.01-.11,1.34-.25l.15,.63c-.31,.14-.84,.3-1.61,.3-1.49,0-2.38-.98-2.38-2.44s.86-2.61,2.27-2.61c1.58,0,2,1.39,2,2.28,0,.18-.02,.32-.03,.41h-3.4Zm2.58-.63c0-.56-.23-1.43-1.22-1.43-.89,0-1.28,.82-1.35,1.43h2.57Z"/><path class="cls-15" d="M214.31,79.07c0-.57,0-1.06-.04-1.51h.77l.03,.95h.04c.22-.65,.75-1.06,1.34-1.06,.1,0,.17,0,.25,.03v.83c-.09-.02-.18-.03-.3-.03-.62,0-1.06,.47-1.18,1.13-.02,.12-.04,.26-.04,.41v2.58h-.87v-3.33Z"/><path class="cls-15" d="M219.7,79.07c0-.57,0-1.06-.04-1.51h.77l.03,.95h.04c.22-.65,.75-1.06,1.34-1.06,.1,0,.17,0,.25,.03v.83c-.09-.02-.18-.03-.3-.03-.62,0-1.06,.47-1.18,1.13-.02,.12-.04,.26-.04,.41v2.58h-.87v-3.33Z"/><path class="cls-15" d="M223.36,80.14c.02,1.19,.78,1.68,1.66,1.68,.63,0,1.01-.11,1.34-.25l.15,.63c-.31,.14-.84,.3-1.61,.3-1.49,0-2.38-.98-2.38-2.44s.86-2.61,2.27-2.61c1.58,0,2,1.39,2,2.28,0,.18-.02,.32-.03,.41h-3.4Zm2.58-.63c0-.56-.23-1.43-1.22-1.43-.89,0-1.28,.82-1.35,1.43h2.57Z"/><path class="cls-15" d="M228.94,76.17v1.39h1.26v.67h-1.26v2.61c0,.6,.17,.94,.66,.94,.23,0,.4-.03,.51-.06l.04,.66c-.17,.07-.44,.12-.78,.12-.41,0-.74-.13-.95-.37-.25-.26-.34-.69-.34-1.26v-2.64h-.75v-.67h.75v-1.16l.86-.23Z"/><path class="cls-15" d="M231.63,80.14c.02,1.19,.78,1.68,1.66,1.68,.63,0,1.01-.11,1.34-.25l.15,.63c-.31,.14-.84,.3-1.61,.3-1.49,0-2.38-.98-2.38-2.44s.86-2.61,2.27-2.61c1.58,0,2,1.39,2,2.28,0,.18-.02,.32-.03,.41h-3.4Zm2.58-.63c0-.56-.23-1.43-1.22-1.43-.89,0-1.28,.82-1.35,1.43h2.57Z"/><path class="cls-15" d="M236.15,78.87c0-.5,0-.91-.04-1.31h.78l.05,.8h.02c.24-.46,.8-.91,1.6-.91,.67,0,1.71,.4,1.71,2.06v2.89h-.88v-2.79c0-.78-.29-1.43-1.12-1.43-.58,0-1.03,.41-1.18,.9-.04,.11-.06,.26-.06,.41v2.91h-.88v-3.53Z"/><path class="cls-15" d="M242.73,76.17v1.39h1.26v.67h-1.26v2.61c0,.6,.17,.94,.66,.94,.23,0,.4-.03,.51-.06l.04,.66c-.17,.07-.44,.12-.78,.12-.41,0-.74-.13-.95-.37-.25-.26-.34-.69-.34-1.26v-2.64h-.75v-.67h.75v-1.16l.86-.23Z"/><path class="cls-15" d="M245.96,76.2c0,.3-.21,.54-.56,.54-.31,0-.53-.24-.53-.54s.23-.55,.55-.55,.54,.24,.54,.55Zm-.98,6.2v-4.84h.88v4.84h-.88Z"/><path class="cls-15" d="M251.69,79.94c0,1.79-1.24,2.57-2.41,2.57-1.31,0-2.32-.96-2.32-2.49,0-1.62,1.06-2.57,2.4-2.57s2.33,1.01,2.33,2.49Zm-3.84,.05c0,1.06,.61,1.86,1.47,1.86s1.47-.79,1.47-1.88c0-.82-.41-1.86-1.45-1.86s-1.49,.96-1.49,1.88Z"/><path class="cls-15" d="M252.81,78.87c0-.5,0-.91-.04-1.31h.78l.05,.8h.02c.24-.46,.8-.91,1.6-.91,.67,0,1.71,.4,1.71,2.06v2.89h-.88v-2.79c0-.78-.29-1.43-1.12-1.43-.58,0-1.03,.41-1.18,.9-.04,.11-.06,.26-.06,.41v2.91h-.88v-3.53Z"/><path class="cls-15" d="M257.79,83.62c.22-.59,.49-1.66,.6-2.39l.98-.1c-.23,.85-.67,1.96-.95,2.43l-.63,.06Z"/></g><path class="cls-15" d="M147.94,94.21c-.23,.12-.74,.28-1.39,.28-1.46,0-2.41-.99-2.41-2.47s1.02-2.57,2.6-2.57c.52,0,.98,.13,1.22,.25l-.2,.68c-.21-.12-.54-.23-1.02-.23-1.11,0-1.71,.82-1.71,1.83,0,1.12,.72,1.81,1.68,1.81,.5,0,.83-.13,1.08-.24l.15,.66Zm5.08-1.14c0,.5,.01,.94,.04,1.32h-.78l-.05-.79h-.02c-.23,.39-.74,.9-1.6,.9-.76,0-1.67-.42-1.67-2.12v-2.83h.88v2.68c0,.92,.28,1.54,1.08,1.54,.59,0,1-.41,1.16-.8,.05-.13,.08-.29,.08-.45v-2.97h.88v3.52Zm1.34,.42c.26,.17,.72,.35,1.16,.35,.64,0,.94-.32,.94-.72,0-.42-.25-.65-.9-.89-.87-.31-1.28-.79-1.28-1.37,0-.78,.63-1.42,1.67-1.42,.49,0,.92,.14,1.19,.3l-.22,.64c-.19-.12-.54-.28-.99-.28-.52,0-.81,.3-.81,.66,0,.4,.29,.58,.92,.82,.84,.32,1.27,.74,1.27,1.46,0,.85-.66,1.45-1.81,1.45-.53,0-1.02-.13-1.36-.33l.22-.67Zm5.14-5.33v1.39h1.26v.67h-1.26v2.61c0,.6,.17,.94,.66,.94,.23,0,.4-.03,.51-.06l.04,.66c-.17,.07-.44,.12-.78,.12-.41,0-.74-.13-.95-.37-.25-.26-.34-.69-.34-1.26v-2.64h-.75v-.67h.75v-1.16l.86-.23Zm6.57,3.77c0,1.79-1.24,2.57-2.41,2.57-1.31,0-2.32-.96-2.32-2.49,0-1.62,1.06-2.57,2.4-2.57s2.33,1.01,2.33,2.49Zm-3.84,.05c0,1.06,.61,1.86,1.47,1.86s1.47-.79,1.47-1.88c0-.82-.41-1.86-1.45-1.86s-1.49,.96-1.49,1.88Zm4.95-1.12c0-.5-.01-.91-.04-1.31h.77l.04,.78h.03c.27-.46,.72-.89,1.52-.89,.66,0,1.16,.4,1.37,.97h.02c.15-.27,.34-.48,.54-.63,.29-.22,.61-.34,1.07-.34,.64,0,1.59,.42,1.59,2.1v2.85h-.86v-2.74c0-.93-.34-1.49-1.05-1.49-.5,0-.89,.37-1.04,.8-.04,.12-.07,.28-.07,.44v2.99h-.86v-2.9c0-.77-.34-1.33-1.01-1.33-.55,0-.95,.44-1.09,.88-.05,.13-.07,.28-.07,.43v2.92h-.86v-3.53Zm8.83,1.27c.02,1.19,.78,1.68,1.66,1.68,.63,0,1.01-.11,1.34-.25l.15,.63c-.31,.14-.84,.3-1.61,.3-1.49,0-2.38-.98-2.38-2.44s.86-2.61,2.27-2.61c1.58,0,2,1.39,2,2.28,0,.18-.02,.32-.03,.41h-3.4Zm2.58-.63c0-.56-.23-1.43-1.22-1.43-.89,0-1.28,.82-1.35,1.43h2.57Zm1.94-.44c0-.57,0-1.06-.04-1.51h.77l.03,.95h.04c.22-.65,.75-1.06,1.34-1.06,.1,0,.17,0,.25,.03v.83c-.09-.02-.18-.03-.3-.03-.62,0-1.06,.47-1.18,1.13-.02,.12-.04,.26-.04,.41v2.58h-.87v-3.33Zm5.88,1.07c.02,1.19,.78,1.68,1.66,1.68,.63,0,1.01-.11,1.34-.25l.15,.63c-.31,.14-.84,.3-1.61,.3-1.49,0-2.38-.98-2.38-2.44s.86-2.61,2.27-2.61c1.58,0,2,1.39,2,2.28,0,.18-.02,.32-.03,.41h-3.4Zm2.58-.63c0-.56-.23-1.43-1.22-1.43-.89,0-1.28,.82-1.35,1.43h2.57Zm4.93,2.89v-4.17h-2.03v4.17h-.87v-4.17h-.68v-.67h.68v-.16c0-.68,.16-1.27,.54-1.65,.28-.28,.68-.45,1.22-.45,.28,0,.54,.09,.69,.17l-.18,.65c-.13-.06-.32-.12-.52-.12-.69,0-.88,.59-.88,1.35v.21h2.03v-.23c0-.68,.16-1.3,.57-1.69,.33-.32,.77-.45,1.17-.45,.32,0,.58,.07,.75,.14l-.11,.68c-.14-.06-.31-.11-.57-.11-.74,0-.94,.66-.94,1.4v.26h1.17v.67h-1.16v4.17h-.88Zm7.09-2.46c0,1.79-1.24,2.57-2.41,2.57-1.31,0-2.32-.96-2.32-2.49,0-1.62,1.06-2.57,2.4-2.57s2.33,1.01,2.33,2.49Zm-3.84,.05c0,1.06,.61,1.86,1.47,1.86s1.47-.79,1.47-1.88c0-.82-.41-1.86-1.45-1.86s-1.49,.96-1.49,1.88Zm4.95-.92c0-.57-.01-1.06-.04-1.51h.77l.03,.95h.04c.22-.65,.75-1.06,1.34-1.06,.1,0,.17,0,.25,.03v.83c-.09-.02-.18-.03-.3-.03-.62,0-1.06,.47-1.18,1.13-.02,.12-.04,.26-.04,.41v2.58h-.87v-3.33Zm4.57-2.9v1.39h1.26v.67h-1.26v2.61c0,.6,.17,.94,.66,.94,.23,0,.4-.03,.51-.06l.04,.66c-.17,.07-.44,.12-.78,.12-.41,0-.74-.13-.95-.37-.25-.26-.34-.69-.34-1.26v-2.64h-.75v-.67h.75v-1.16l.86-.23Zm4.25,5.33c.26,.17,.72,.35,1.16,.35,.64,0,.94-.32,.94-.72,0-.42-.25-.65-.9-.89-.87-.31-1.28-.79-1.28-1.37,0-.78,.63-1.42,1.67-1.42,.49,0,.92,.14,1.19,.3l-.22,.64c-.19-.12-.54-.28-.99-.28-.52,0-.81,.3-.81,.66,0,.4,.29,.58,.92,.82,.84,.32,1.27,.74,1.27,1.46,0,.85-.66,1.45-1.81,1.45-.53,0-1.02-.13-1.36-.33l.22-.67Zm7.53,.72c-.23,.12-.74,.28-1.39,.28-1.46,0-2.41-.99-2.41-2.47s1.02-2.57,2.6-2.57c.52,0,.98,.13,1.22,.25l-.2,.68c-.21-.12-.54-.23-1.02-.23-1.11,0-1.71,.82-1.71,1.83,0,1.12,.72,1.81,1.68,1.81,.5,0,.83-.13,1.08-.24l.15,.66Zm5.35-2.28c0,1.79-1.24,2.57-2.41,2.57-1.31,0-2.32-.96-2.32-2.49,0-1.62,1.06-2.57,2.4-2.57s2.33,1.01,2.33,2.49Zm-3.84,.05c0,1.06,.61,1.86,1.47,1.86s1.47-.79,1.47-1.88c0-.82-.41-1.86-1.45-1.86s-1.49,.96-1.49,1.88Zm4.95-.92c0-.57,0-1.06-.04-1.51h.77l.03,.95h.04c.22-.65,.75-1.06,1.34-1.06,.1,0,.17,0,.25,.03v.83c-.09-.02-.18-.03-.3-.03-.62,0-1.06,.47-1.18,1.13-.02,.12-.04,.26-.04,.41v2.58h-.87v-3.33Zm3.66,1.07c.02,1.19,.78,1.68,1.66,1.68,.63,0,1.01-.11,1.34-.25l.15,.63c-.31,.14-.84,.3-1.61,.3-1.49,0-2.38-.98-2.38-2.44s.86-2.61,2.27-2.61c1.58,0,2,1.39,2,2.28,0,.18-.02,.32-.03,.41h-3.4Zm2.58-.63c0-.56-.23-1.43-1.22-1.43-.89,0-1.28,.82-1.35,1.43h2.57Zm1.25,4.12c.22-.59,.49-1.66,.6-2.39l.98-.1c-.23,.85-.67,1.96-.95,2.43l-.63,.06Zm4.72-1.23c.02-.33,.04-.82,.04-1.25v-5.85h.87v3.04h.02c.31-.54,.87-.89,1.65-.89,1.2,0,2.05,1,2.04,2.47,0,1.73-1.09,2.59-2.17,2.59-.7,0-1.26-.27-1.62-.91h-.03l-.04,.8h-.76Zm.91-1.94c0,.11,.02,.22,.04,.32,.17,.61,.68,1.03,1.32,1.03,.92,0,1.47-.75,1.47-1.86,0-.97-.5-1.8-1.44-1.8-.6,0-1.16,.41-1.34,1.08-.02,.1-.05,.22-.05,.36v.87Zm8.87,.62c0,.5,.01,.94,.04,1.32h-.78l-.05-.79h-.02c-.23,.39-.74,.9-1.6,.9-.76,0-1.67-.42-1.67-2.12v-2.83h.88v2.68c0,.92,.28,1.54,1.08,1.54,.59,0,1-.41,1.16-.8,.05-.13,.08-.29,.08-.45v-2.97h.88v3.52Zm1.34,.42c.26,.17,.72,.35,1.16,.35,.64,0,.94-.32,.94-.72,0-.42-.25-.65-.9-.89-.87-.31-1.28-.79-1.28-1.37,0-.78,.63-1.42,1.67-1.42,.49,0,.92,.14,1.19,.3l-.22,.64c-.19-.12-.54-.28-.99-.28-.52,0-.81,.3-.81,.66,0,.4,.29,.58,.92,.82,.84,.32,1.27,.74,1.27,1.46,0,.85-.66,1.45-1.81,1.45-.53,0-1.02-.13-1.36-.33l.22-.67Zm5.06-5.3c0,.3-.21,.54-.56,.54-.31,0-.53-.24-.53-.54s.23-.55,.55-.55,.54,.24,.54,.55Zm-.98,6.2v-4.84h.88v4.84h-.88Zm2.34-3.53c0-.5-.01-.91-.04-1.31h.78l.05,.8h.02c.24-.46,.8-.91,1.6-.91,.67,0,1.71,.4,1.71,2.06v2.89h-.88v-2.79c0-.78-.29-1.43-1.12-1.43-.58,0-1.03,.41-1.18,.9-.04,.11-.06,.26-.06,.41v2.91h-.88v-3.53Zm6.04,1.27c.02,1.19,.78,1.68,1.66,1.68,.63,0,1.01-.11,1.34-.25l.15,.63c-.31,.14-.84,.3-1.61,.3-1.49,0-2.38-.98-2.38-2.44s.86-2.61,2.27-2.61c1.58,0,2,1.39,2,2.28,0,.18-.02,.32-.03,.41h-3.4Zm2.58-.63c.01-.56-.23-1.43-1.22-1.43-.89,0-1.28,.82-1.35,1.43h2.57Zm1.82,1.99c.26,.17,.72,.35,1.16,.35,.64,0,.94-.32,.94-.72,0-.42-.25-.65-.9-.89-.87-.31-1.28-.79-1.28-1.37,0-.78,.63-1.42,1.67-1.42,.49,0,.92,.14,1.19,.3l-.22,.64c-.19-.12-.54-.28-.99-.28-.52,0-.81,.3-.81,.66,0,.4,.29,.58,.92,.82,.84,.32,1.27,.74,1.27,1.46,0,.85-.66,1.45-1.81,1.45-.53,0-1.02-.13-1.36-.33l.22-.67Zm3.96,0c.26,.17,.72,.35,1.16,.35,.64,0,.94-.32,.94-.72,0-.42-.25-.65-.9-.89-.87-.31-1.28-.79-1.28-1.37,0-.78,.63-1.42,1.67-1.42,.49,0,.92,.14,1.19,.3l-.22,.64c-.19-.12-.54-.28-.99-.28-.52,0-.81,.3-.81,.66,0,.4,.29,.58,.92,.82,.84,.32,1.27,.74,1.27,1.46,0,.85-.66,1.45-1.81,1.45-.53,0-1.02-.13-1.36-.33l.22-.67Z"/><g><path class="cls-15" d="M172.04,101.56c-.02,.35-.04,.74-.04,1.33v2.81c0,1.11-.22,1.79-.69,2.21-.47,.44-1.15,.58-1.76,.58s-1.22-.14-1.61-.4l.22-.67c.32,.2,.82,.38,1.42,.38,.9,0,1.56-.47,1.56-1.69v-.54h-.02c-.27,.45-.79,.81-1.54,.81-1.2,0-2.06-1.02-2.06-2.36,0-1.64,1.07-2.57,2.18-2.57,.84,0,1.3,.44,1.51,.84h.02l.04-.73h.77Zm-.91,1.91c0-.15-.01-.28-.05-.4-.16-.51-.59-.93-1.23-.93-.84,0-1.44,.71-1.44,1.83,0,.95,.48,1.74,1.43,1.74,.54,0,1.03-.34,1.22-.9,.05-.15,.07-.32,.07-.47v-.87Z"/><path class="cls-15" d="M173.41,103.07c0-.57,0-1.06-.04-1.51h.77l.03,.95h.04c.22-.65,.75-1.06,1.34-1.06,.1,0,.17,0,.25,.03v.83c-.09-.02-.18-.03-.3-.03-.62,0-1.06,.47-1.18,1.13-.02,.12-.04,.26-.04,.41v2.58h-.87v-3.33Z"/><path class="cls-15" d="M180.96,103.94c0,1.79-1.24,2.57-2.41,2.57-1.31,0-2.32-.96-2.32-2.49,0-1.62,1.06-2.57,2.4-2.57s2.33,1.01,2.33,2.49Zm-3.84,.05c0,1.06,.61,1.86,1.47,1.86s1.47-.79,1.47-1.88c0-.82-.41-1.86-1.45-1.86s-1.49,.96-1.49,1.88Z"/><path class="cls-15" d="M182.36,101.56l.64,2.46c.14,.54,.27,1.04,.36,1.54h.03c.11-.49,.27-1.01,.43-1.53l.79-2.47h.74l.75,2.42c.18,.58,.32,1.09,.43,1.58h.03c.08-.49,.21-1,.37-1.57l.69-2.43h.87l-1.56,4.84h-.8l-.74-2.31c-.17-.54-.31-1.02-.43-1.59h-.02c-.12,.58-.27,1.08-.44,1.6l-.78,2.3h-.8l-1.46-4.84h.9Z"/><path class="cls-15" d="M190.43,100.17v1.39h1.26v.67h-1.26v2.61c0,.6,.17,.94,.66,.94,.23,0,.4-.03,.51-.06l.04,.66c-.17,.07-.44,.12-.78,.12-.41,0-.74-.13-.95-.37-.25-.26-.34-.69-.34-1.26v-2.64h-.75v-.67h.75v-1.16l.86-.23Z"/><path class="cls-15" d="M192.68,99.3h.88v3.02h.02c.14-.25,.36-.47,.63-.62,.26-.15,.57-.25,.9-.25,.65,0,1.69,.4,1.69,2.07v2.88h-.88v-2.78c0-.78-.29-1.44-1.12-1.44-.57,0-1.02,.4-1.18,.88-.05,.12-.06,.25-.06,.42v2.92h-.88v-7.1Z"/><path class="cls-15" d="M197.66,107.62c.22-.59,.49-1.66,.6-2.39l.98-.1c-.23,.85-.67,1.96-.95,2.43l-.63,.06Z"/><path class="cls-15" d="M202.3,105.49c.26,.17,.72,.35,1.16,.35,.64,0,.94-.32,.94-.72,0-.42-.25-.65-.9-.89-.87-.31-1.28-.79-1.28-1.37,0-.78,.63-1.42,1.67-1.42,.49,0,.92,.14,1.19,.3l-.22,.64c-.19-.12-.54-.28-.99-.28-.52,0-.81,.3-.81,.66,0,.4,.29,.58,.92,.82,.84,.32,1.27,.74,1.27,1.46,0,.85-.66,1.45-1.81,1.45-.53,0-1.02-.13-1.36-.33l.22-.67Z"/><path class="cls-15" d="M209.06,106.39l-.07-.61h-.03c-.27,.38-.79,.72-1.48,.72-.98,0-1.48-.69-1.48-1.39,0-1.17,1.04-1.81,2.91-1.8v-.1c0-.4-.11-1.12-1.1-1.12-.45,0-.92,.14-1.26,.36l-.2-.58c.4-.26,.98-.43,1.59-.43,1.48,0,1.84,1.01,1.84,1.98v1.81c0,.42,.02,.83,.08,1.16h-.8Zm-.13-2.47c-.96-.02-2.05,.15-2.05,1.09,0,.57,.38,.84,.83,.84,.63,0,1.03-.4,1.17-.81,.03-.09,.05-.19,.05-.28v-.84Z"/><path class="cls-15" d="M212.23,100.17v1.39h1.26v.67h-1.26v2.61c0,.6,.17,.94,.66,.94,.23,0,.4-.03,.51-.06l.04,.66c-.17,.07-.44,.12-.78,.12-.41,0-.74-.13-.95-.37-.25-.26-.34-.69-.34-1.26v-2.64h-.75v-.67h.75v-1.16l.86-.23Z"/><path class="cls-15" d="M215.46,100.2c0,.3-.21,.54-.56,.54-.31,0-.53-.24-.53-.54s.23-.55,.55-.55,.54,.24,.54,.55Zm-.98,6.2v-4.84h.88v4.84h-.88Z"/><path class="cls-15" d="M216.7,105.49c.26,.17,.72,.35,1.16,.35,.64,0,.94-.32,.94-.72,0-.42-.25-.65-.9-.89-.87-.31-1.28-.79-1.28-1.37,0-.78,.63-1.42,1.67-1.42,.49,0,.92,.14,1.19,.3l-.22,.64c-.19-.12-.54-.28-.99-.28-.52,0-.81,.3-.81,.66,0,.4,.29,.58,.92,.82,.84,.32,1.27,.74,1.27,1.46,0,.85-.66,1.45-1.81,1.45-.53,0-1.02-.13-1.36-.33l.22-.67Z"/><path class="cls-15" d="M220.87,106.39v-4.17h-.68v-.67h.68v-.23c0-.68,.15-1.3,.56-1.69,.33-.32,.77-.45,1.18-.45,.31,0,.58,.07,.75,.14l-.12,.68c-.13-.06-.31-.11-.56-.11-.75,0-.94,.66-.94,1.4v.26h1.17v.67h-1.17v4.17h-.87Z"/><path class="cls-15" d="M226.38,106.39l-.07-.61h-.03c-.27,.38-.79,.72-1.48,.72-.98,0-1.48-.69-1.48-1.39,0-1.17,1.04-1.81,2.91-1.8v-.1c0-.4-.11-1.12-1.1-1.12-.45,0-.92,.14-1.26,.36l-.2-.58c.4-.26,.98-.43,1.59-.43,1.48,0,1.84,1.01,1.84,1.98v1.81c0,.42,.02,.83,.08,1.16h-.8Zm-.13-2.47c-.96-.02-2.05,.15-2.05,1.09,0,.57,.38,.84,.83,.84,.63,0,1.03-.4,1.17-.81,.03-.09,.05-.19,.05-.28v-.84Z"/><path class="cls-15" d="M231.97,106.21c-.23,.12-.74,.28-1.39,.28-1.46,0-2.41-.99-2.41-2.47s1.02-2.57,2.6-2.57c.52,0,.98,.13,1.22,.25l-.2,.68c-.21-.12-.54-.23-1.02-.23-1.11,0-1.71,.82-1.71,1.83,0,1.12,.72,1.81,1.68,1.81,.5,0,.83-.13,1.08-.24l.15,.66Z"/><path class="cls-15" d="M234.19,100.17v1.39h1.26v.67h-1.26v2.61c0,.6,.17,.94,.66,.94,.23,0,.4-.03,.51-.06l.04,.66c-.17,.07-.44,.12-.78,.12-.41,0-.74-.13-.95-.37-.25-.26-.34-.69-.34-1.26v-2.64h-.75v-.67h.75v-1.16l.86-.23Z"/><path class="cls-15" d="M237.42,100.2c0,.3-.21,.54-.56,.54-.31,0-.53-.24-.53-.54s.23-.55,.55-.55,.54,.24,.54,.55Zm-.98,6.2v-4.84h.88v4.84h-.88Z"/><path class="cls-15" d="M243.15,103.94c0,1.79-1.24,2.57-2.41,2.57-1.31,0-2.32-.96-2.32-2.49,0-1.62,1.06-2.57,2.4-2.57s2.33,1.01,2.33,2.49Zm-3.84,.05c0,1.06,.61,1.86,1.47,1.86s1.47-.79,1.47-1.88c0-.82-.41-1.86-1.45-1.86s-1.49,.96-1.49,1.88Z"/><path class="cls-15" d="M244.27,102.87c0-.5,0-.91-.04-1.31h.78l.05,.8h.02c.24-.46,.8-.91,1.6-.91,.67,0,1.71,.4,1.71,2.06v2.89h-.88v-2.79c0-.78-.29-1.43-1.12-1.43-.58,0-1.03,.41-1.18,.9-.04,.11-.06,.26-.06,.41v2.91h-.88v-3.53Z"/></g><g><path class="cls-15" d="M303.83,250.68h-3.14v2.91h3.5v.88h-4.55v-8.08h4.37v.88h-3.32v2.55h3.14v.86Z"/><path class="cls-15" d="M305.55,254.47v-8.08h1.14l2.59,4.09c.6,.95,1.07,1.8,1.45,2.63h.02c-.1-1.09-.12-2.07-.12-3.33v-3.38h.98v8.08h-1.06l-2.57-4.1c-.56-.9-1.1-1.82-1.51-2.7h-.04c.06,1.03,.08,2,.08,3.35v3.45h-.98Z"/><path class="cls-15" d="M315.22,254.47l-2.64-8.08h1.13l1.26,3.98c.35,1.09,.65,2.07,.86,3.02h.02c.23-.94,.56-1.95,.92-3.01l1.37-3.99h1.12l-2.89,8.08h-1.15Z"/><path class="cls-15" d="M321.18,246.38v8.08h-1.04v-8.08h1.04Z"/><path class="cls-15" d="M323.01,246.49c.53-.11,1.28-.17,2-.17,1.12,0,1.83,.2,2.34,.66,.41,.36,.64,.91,.64,1.54,0,1.07-.67,1.77-1.52,2.06v.04c.62,.22,1,.79,1.19,1.63,.26,1.13,.46,1.91,.62,2.22h-1.08c-.13-.23-.31-.92-.54-1.93-.24-1.12-.67-1.54-1.62-1.57h-.98v3.5h-1.04v-7.98Zm1.04,3.68h1.07c1.12,0,1.82-.61,1.82-1.54,0-1.04-.76-1.5-1.86-1.51-.5,0-.86,.05-1.03,.1v2.95Z"/><path class="cls-15" d="M336.41,250.34c0,2.78-1.69,4.26-3.75,4.26s-3.63-1.65-3.63-4.1c0-2.57,1.6-4.25,3.75-4.25s3.63,1.69,3.63,4.09Zm-6.27,.13c0,1.73,.94,3.27,2.58,3.27s2.59-1.52,2.59-3.36c0-1.61-.84-3.29-2.58-3.29s-2.59,1.59-2.59,3.37Z"/><path class="cls-15" d="M337.77,254.47v-8.08h1.14l2.59,4.09c.6,.95,1.07,1.8,1.45,2.63h.02c-.1-1.09-.12-2.07-.12-3.33v-3.38h.98v8.08h-1.06l-2.57-4.1c-.56-.9-1.1-1.82-1.51-2.7h-.04c.06,1.03,.08,2,.08,3.35v3.45h-.98Z"/><path class="cls-15" d="M352.47,250.92c-.06-1.13-.13-2.48-.12-3.49h-.04c-.28,.95-.61,1.95-1.02,3.07l-1.43,3.92h-.79l-1.31-3.85c-.38-1.14-.71-2.18-.94-3.14h-.02c-.02,1.01-.08,2.36-.16,3.57l-.22,3.47h-1l.56-8.08h1.33l1.38,3.91c.34,1,.61,1.88,.82,2.72h.04c.2-.82,.49-1.7,.85-2.72l1.44-3.91h1.33l.5,8.08h-1.02l-.2-3.55Z"/><path class="cls-15" d="M359.5,250.68h-3.14v2.91h3.5v.88h-4.55v-8.08h4.37v.88h-3.32v2.55h3.14v.86Z"/><path class="cls-15" d="M361.21,254.47v-8.08h1.14l2.59,4.09c.6,.95,1.07,1.8,1.45,2.63h.02c-.1-1.09-.12-2.07-.12-3.33v-3.38h.98v8.08h-1.06l-2.57-4.1c-.56-.9-1.1-1.82-1.51-2.7h-.04c.06,1.03,.08,2,.08,3.35v3.45h-.98Z"/><path class="cls-15" d="M370.64,247.27h-2.46v-.89h5.98v.89h-2.47v7.2h-1.06v-7.2Z"/></g><g><path class="cls-15" d="M286.15,270.21h-2.54v1.98h2.84v1.01h-4.07v-6.74h3.92v1.01h-2.69v1.74h2.54v1Z"/><path class="cls-15" d="M287.49,269.78c0-.56,0-1.03-.04-1.45h1.08l.06,.73h.03c.21-.38,.74-.84,1.55-.84,.85,0,1.73,.55,1.73,2.09v2.89h-1.23v-2.75c0-.7-.26-1.23-.93-1.23-.49,0-.83,.35-.96,.72-.04,.11-.05,.26-.05,.4v2.86h-1.24v-3.42Z"/><path class="cls-15" d="M295.94,273.2l-.08-.54h-.03c-.3,.38-.81,.65-1.44,.65-.98,0-1.53-.71-1.53-1.45,0-1.23,1.09-1.85,2.89-1.84v-.08c0-.32-.13-.85-.99-.85-.48,0-.98,.15-1.31,.36l-.24-.8c.36-.22,.99-.43,1.76-.43,1.56,0,2.01,.99,2.01,2.05v1.76c0,.44,.02,.87,.07,1.17h-1.11Zm-.16-2.38c-.87-.02-1.7,.17-1.7,.91,0,.48,.31,.7,.7,.7,.49,0,.85-.32,.96-.67,.03-.09,.04-.19,.04-.27v-.67Z"/><path class="cls-15" d="M298.25,273.2c.02-.33,.04-.87,.04-1.37v-5.73h1.23v2.9h.02c.3-.47,.83-.78,1.56-.78,1.19,0,2.04,.99,2.03,2.47,0,1.75-1.11,2.62-2.21,2.62-.63,0-1.19-.24-1.54-.84h-.02l-.06,.73h-1.05Zm1.27-2.01c0,.1,.01,.2,.03,.29,.13,.49,.56,.86,1.09,.86,.77,0,1.24-.62,1.24-1.6,0-.86-.41-1.56-1.23-1.56-.5,0-.95,.36-1.09,.9-.02,.09-.04,.2-.04,.32v.79Z"/><path class="cls-15" d="M304.14,266.1h1.24v7.1h-1.24v-7.1Z"/><path class="cls-15" d="M308.01,266.97c0,.37-.27,.66-.7,.66s-.68-.29-.68-.66,.28-.67,.69-.67,.68,.29,.69,.67Zm-1.31,6.23v-4.87h1.24v4.87h-1.24Z"/><path class="cls-15" d="M309.26,269.78c0-.56,0-1.03-.04-1.45h1.08l.06,.73h.03c.21-.38,.74-.84,1.55-.84,.85,0,1.73,.55,1.73,2.09v2.89h-1.23v-2.75c0-.7-.26-1.23-.93-1.23-.49,0-.83,.35-.96,.72-.04,.11-.05,.26-.05,.4v2.86h-1.24v-3.42Z"/><path class="cls-15" d="M319.43,268.33c-.02,.33-.04,.73-.04,1.4v2.76c0,1.02-.21,1.75-.72,2.21-.51,.45-1.21,.59-1.88,.59-.62,0-1.28-.13-1.7-.39l.27-.93c.31,.18,.83,.37,1.42,.37,.8,0,1.4-.42,1.4-1.47v-.42h-.02c-.28,.43-.78,.72-1.42,.72-1.21,0-2.07-1-2.07-2.38,0-1.6,1.04-2.57,2.21-2.57,.74,0,1.18,.36,1.41,.76h.02l.05-.65h1.07Zm-1.27,1.95c0-.11,0-.23-.04-.33-.13-.45-.48-.79-1-.79-.69,0-1.2,.6-1.2,1.59,0,.83,.42,1.5,1.19,1.5,.46,0,.86-.3,1-.74,.03-.13,.05-.3,.05-.44v-.79Z"/><path class="cls-15" d="M322.78,269.95c0-.64-.02-1.16-.04-1.62h1.08l.06,.75h.02c.36-.55,.93-.86,1.67-.86,1.12,0,2.05,.96,2.05,2.48,0,1.76-1.11,2.61-2.22,2.61-.61,0-1.12-.26-1.37-.65h-.02v2.52h-1.23v-5.23Zm1.23,1.21c0,.12,.01,.23,.04,.34,.12,.5,.56,.86,1.08,.86,.78,0,1.24-.65,1.24-1.61,0-.86-.42-1.56-1.21-1.56-.51,0-.98,.37-1.1,.91-.03,.1-.05,.21-.05,.31v.75Z"/><path class="cls-15" d="M328.63,269.9c0-.66,0-1.13-.04-1.57h1.07l.04,.93h.04c.24-.69,.81-1.04,1.33-1.04,.12,0,.19,0,.29,.03v1.16c-.1-.02-.21-.04-.36-.04-.59,0-.99,.38-1.1,.93-.02,.11-.04,.24-.04,.38v2.52h-1.23v-3.3Z"/><path class="cls-15" d="M336.74,270.72c0,1.79-1.26,2.59-2.5,2.59-1.38,0-2.44-.95-2.44-2.51s1.05-2.58,2.52-2.58,2.42,1.02,2.42,2.5Zm-3.67,.05c0,.94,.46,1.65,1.21,1.65,.7,0,1.19-.69,1.19-1.67,0-.76-.34-1.63-1.18-1.63s-1.22,.84-1.22,1.65Z"/><path class="cls-15" d="M342.2,268.33c-.02,.33-.04,.73-.04,1.4v2.76c0,1.02-.21,1.75-.72,2.21-.51,.45-1.21,.59-1.88,.59-.62,0-1.28-.13-1.7-.39l.27-.93c.31,.18,.83,.37,1.42,.37,.8,0,1.4-.42,1.4-1.47v-.42h-.02c-.28,.43-.78,.72-1.42,.72-1.21,0-2.07-1-2.07-2.38,0-1.6,1.04-2.57,2.21-2.57,.74,0,1.18,.36,1.41,.76h.02l.05-.65h1.07Zm-1.27,1.95c0-.11,0-.23-.04-.33-.13-.45-.48-.79-1-.79-.69,0-1.2,.6-1.2,1.59,0,.83,.42,1.5,1.19,1.5,.46,0,.86-.3,1-.74,.03-.13,.05-.3,.05-.44v-.79Z"/><path class="cls-15" d="M343.45,269.9c0-.66,0-1.13-.04-1.57h1.07l.04,.93h.04c.24-.69,.81-1.04,1.33-1.04,.12,0,.19,0,.29,.03v1.16c-.1-.02-.21-.04-.36-.04-.59,0-.99,.38-1.1,.93-.02,.11-.04,.24-.04,.38v2.52h-1.23v-3.3Z"/><path class="cls-15" d="M347.79,271.11c.03,.88,.72,1.26,1.5,1.26,.57,0,.98-.08,1.35-.22l.18,.85c-.42,.17-1,.3-1.7,.3-1.58,0-2.51-.97-2.51-2.46,0-1.35,.82-2.62,2.38-2.62s2.1,1.3,2.1,2.37c0,.23-.02,.41-.04,.52h-3.26Zm2.14-.86c0-.45-.19-1.19-1.01-1.19-.76,0-1.08,.69-1.13,1.19h2.14Z"/><path class="cls-15" d="M352.02,272.07c.28,.17,.81,.35,1.25,.35,.54,0,.78-.22,.78-.54s-.2-.5-.8-.71c-.95-.33-1.35-.85-1.34-1.42,0-.86,.71-1.53,1.84-1.53,.54,0,1.01,.14,1.29,.29l-.24,.87c-.21-.12-.6-.28-1.03-.28s-.68,.21-.68,.51,.23,.46,.85,.68c.88,.32,1.29,.77,1.3,1.49,0,.88-.69,1.52-1.98,1.52-.59,0-1.12-.14-1.48-.34l.24-.89Z"/><path class="cls-15" d="M356.19,272.07c.28,.17,.81,.35,1.25,.35,.54,0,.78-.22,.78-.54s-.2-.5-.8-.71c-.95-.33-1.35-.85-1.34-1.42,0-.86,.71-1.53,1.84-1.53,.54,0,1.01,.14,1.29,.29l-.24,.87c-.21-.12-.6-.28-1.03-.28s-.68,.21-.68,.51,.23,.46,.85,.68c.88,.32,1.29,.77,1.3,1.49,0,.88-.69,1.52-1.98,1.52-.59,0-1.12-.14-1.48-.34l.24-.89Z"/><path class="cls-15" d="M363.9,266.94v1.39h1.17v.92h-1.17v2.15c0,.59,.16,.9,.63,.9,.21,0,.37-.03,.48-.06l.02,.94c-.18,.07-.5,.12-.89,.12-.45,0-.83-.15-1.06-.4-.26-.28-.38-.72-.38-1.36v-2.29h-.7v-.92h.7v-1.1l1.2-.29Z"/><path class="cls-15" d="M370.58,270.72c0,1.79-1.26,2.59-2.5,2.59-1.38,0-2.44-.95-2.44-2.51s1.05-2.58,2.52-2.58,2.42,1.02,2.42,2.5Zm-3.67,.05c0,.94,.46,1.65,1.21,1.65,.7,0,1.19-.69,1.19-1.67,0-.76-.34-1.63-1.18-1.63s-1.22,.84-1.22,1.65Z"/><path class="cls-15" d="M372.25,268.33l.51,2.21c.11,.52,.22,1.05,.31,1.58h.02c.1-.53,.26-1.07,.4-1.57l.63-2.22h1l.61,2.16c.15,.57,.28,1.1,.39,1.63h.02c.08-.53,.19-1.06,.32-1.63l.54-2.16h1.21l-1.53,4.87h-1.14l-.58-1.98c-.15-.51-.26-.97-.37-1.56h-.02c-.1,.6-.23,1.08-.37,1.56l-.62,1.98h-1.15l-1.44-4.87h1.26Z"/><path class="cls-15" d="M381.69,273.2l-.08-.54h-.03c-.3,.38-.81,.65-1.44,.65-.98,0-1.53-.71-1.53-1.45,0-1.23,1.09-1.85,2.89-1.84v-.08c0-.32-.13-.85-.99-.85-.48,0-.98,.15-1.31,.36l-.24-.8c.36-.22,.99-.43,1.76-.43,1.56,0,2.01,.99,2.01,2.05v1.76c0,.44,.02,.87,.07,1.17h-1.11Zm-.16-2.38c-.87-.02-1.7,.17-1.7,.91,0,.48,.31,.7,.7,.7,.49,0,.85-.32,.96-.67,.03-.09,.04-.19,.04-.27v-.67Z"/><path class="cls-15" d="M384.03,269.9c0-.66,0-1.13-.04-1.57h1.07l.04,.93h.04c.24-.69,.81-1.04,1.33-1.04,.12,0,.19,0,.29,.03v1.16c-.1-.02-.21-.04-.36-.04-.59,0-.99,.38-1.1,.93-.02,.11-.04,.24-.04,.38v2.52h-1.23v-3.3Z"/><path class="cls-15" d="M392,266.1v5.73c0,.5,.02,1.04,.04,1.37h-1.1l-.05-.77h-.02c-.29,.54-.88,.88-1.59,.88-1.16,0-2.08-.99-2.08-2.49,0-1.63,1.01-2.6,2.18-2.6,.67,0,1.15,.28,1.37,.64h.02v-2.76h1.23Zm-1.23,4.26c0-.1,0-.22-.03-.32-.11-.48-.5-.87-1.06-.87-.79,0-1.23,.7-1.23,1.61s.44,1.54,1.22,1.54c.5,0,.94-.34,1.06-.87,.03-.11,.04-.23,.04-.36v-.73Z"/></g><g><path class="cls-15" d="M296.07,284.07c.28,.17,.81,.35,1.25,.35,.54,0,.78-.22,.78-.54s-.2-.5-.8-.71c-.95-.33-1.35-.85-1.34-1.42,0-.86,.71-1.53,1.84-1.53,.54,0,1.01,.14,1.29,.29l-.24,.87c-.21-.12-.6-.28-1.03-.28s-.68,.21-.68,.51,.23,.46,.85,.68c.88,.32,1.29,.77,1.3,1.49,0,.88-.69,1.52-1.98,1.52-.59,0-1.12-.14-1.48-.34l.24-.89Z"/><path class="cls-15" d="M304.65,283.74c0,.58,.02,1.06,.04,1.46h-1.08l-.06-.74h-.02c-.21,.35-.69,.85-1.56,.85s-1.7-.53-1.7-2.12v-2.86h1.23v2.65c0,.81,.26,1.33,.91,1.33,.49,0,.81-.35,.94-.66,.04-.11,.07-.24,.07-.38v-2.94h1.23v3.41Z"/><path class="cls-15" d="M305.93,284.07c.28,.17,.81,.35,1.25,.35,.54,0,.78-.22,.78-.54s-.2-.5-.8-.71c-.95-.33-1.35-.85-1.34-1.42,0-.86,.71-1.53,1.84-1.53,.54,0,1.01,.14,1.29,.29l-.24,.87c-.21-.12-.6-.28-1.03-.28s-.68,.21-.68,.51,.23,.46,.85,.68c.88,.32,1.29,.77,1.3,1.49,0,.88-.69,1.52-1.98,1.52-.59,0-1.12-.14-1.48-.34l.24-.89Z"/><path class="cls-15" d="M311.56,278.94v1.39h1.17v.92h-1.17v2.15c0,.59,.16,.9,.63,.9,.21,0,.37-.03,.48-.06l.02,.94c-.18,.07-.5,.12-.89,.12-.45,0-.83-.15-1.06-.4-.26-.28-.38-.72-.38-1.36v-2.29h-.7v-.92h.7v-1.1l1.2-.29Z"/><path class="cls-15" d="M316.4,285.2l-.08-.54h-.03c-.3,.38-.81,.65-1.44,.65-.98,0-1.53-.71-1.53-1.45,0-1.23,1.09-1.85,2.89-1.84v-.08c0-.32-.13-.85-.99-.85-.48,0-.98,.15-1.31,.36l-.24-.8c.36-.22,.99-.43,1.76-.43,1.56,0,2.01,.99,2.01,2.05v1.76c0,.44,.02,.87,.07,1.17h-1.11Zm-.16-2.38c-.87-.02-1.7,.17-1.7,.91,0,.48,.31,.7,.7,.7,.49,0,.85-.32,.96-.67,.03-.09,.04-.19,.04-.27v-.67Z"/><path class="cls-15" d="M320.05,278.97c0,.37-.27,.66-.7,.66s-.68-.29-.68-.66,.28-.67,.69-.67,.68,.29,.69,.67Zm-1.31,6.23v-4.87h1.24v4.87h-1.24Z"/><path class="cls-15" d="M321.3,281.78c0-.56,0-1.03-.04-1.45h1.08l.06,.73h.03c.21-.38,.74-.84,1.55-.84,.85,0,1.73,.55,1.73,2.09v2.89h-1.23v-2.75c0-.7-.26-1.23-.93-1.23-.49,0-.83,.35-.96,.72-.04,.11-.05,.26-.05,.4v2.86h-1.24v-3.42Z"/><path class="cls-15" d="M329.76,285.2l-.08-.54h-.03c-.3,.38-.81,.65-1.44,.65-.98,0-1.53-.71-1.53-1.45,0-1.23,1.09-1.85,2.89-1.84v-.08c0-.32-.13-.85-.99-.85-.48,0-.98,.15-1.31,.36l-.24-.8c.36-.22,.99-.43,1.76-.43,1.56,0,2.01,.99,2.01,2.05v1.76c0,.44,.02,.87,.07,1.17h-1.11Zm-.16-2.38c-.87-.02-1.7,.17-1.7,.91,0,.48,.31,.7,.7,.7,.49,0,.85-.32,.96-.67,.03-.09,.04-.19,.04-.27v-.67Z"/><path class="cls-15" d="M332.07,285.2c.02-.33,.04-.87,.04-1.37v-5.73h1.23v2.9h.02c.3-.47,.83-.78,1.56-.78,1.19,0,2.04,.99,2.03,2.47,0,1.75-1.11,2.62-2.21,2.62-.63,0-1.19-.24-1.54-.84h-.02l-.06,.73h-1.05Zm1.27-2.01c0,.1,.01,.2,.03,.29,.13,.49,.56,.86,1.09,.86,.77,0,1.24-.62,1.24-1.6,0-.86-.41-1.56-1.23-1.56-.5,0-.95,.36-1.09,.9-.02,.09-.04,.2-.04,.32v.79Z"/><path class="cls-15" d="M339.26,278.97c0,.37-.27,.66-.7,.66s-.68-.29-.68-.66,.28-.67,.69-.67,.68,.29,.69,.67Zm-1.31,6.23v-4.87h1.24v4.87h-1.24Z"/><path class="cls-15" d="M340.51,278.1h1.24v7.1h-1.24v-7.1Z"/><path class="cls-15" d="M344.39,278.97c0,.37-.27,.66-.7,.66s-.68-.29-.68-.66,.28-.67,.69-.67,.68,.29,.69,.67Zm-1.31,6.23v-4.87h1.24v4.87h-1.24Z"/><path class="cls-15" d="M347.05,278.94v1.39h1.17v.92h-1.17v2.15c0,.59,.16,.9,.63,.9,.21,0,.37-.03,.48-.06l.02,.94c-.18,.07-.5,.12-.89,.12-.45,0-.83-.15-1.06-.4-.26-.28-.38-.72-.38-1.36v-2.29h-.7v-.92h.7v-1.1l1.2-.29Z"/><path class="cls-15" d="M350,280.33l.88,2.61c.1,.3,.2,.67,.27,.95h.03c.08-.28,.17-.64,.26-.96l.76-2.6h1.32l-1.22,3.32c-.67,1.82-1.12,2.63-1.7,3.13-.48,.43-.98,.59-1.29,.63l-.28-1.04c.21-.05,.47-.16,.72-.34,.23-.15,.5-.44,.67-.77,.05-.09,.08-.16,.08-.22,0-.05,0-.12-.07-.24l-1.78-4.47h1.35Z"/><path class="cls-15" d="M360.74,280.33c-.02,.33-.04,.73-.04,1.4v2.76c0,1.02-.21,1.75-.72,2.21-.51,.45-1.21,.59-1.88,.59-.62,0-1.28-.13-1.7-.39l.27-.93c.31,.18,.83,.37,1.42,.37,.8,0,1.4-.42,1.4-1.47v-.42h-.02c-.28,.43-.78,.72-1.42,.72-1.21,0-2.07-1-2.07-2.38,0-1.6,1.04-2.57,2.21-2.57,.74,0,1.18,.36,1.41,.76h.02l.05-.65h1.07Zm-1.27,1.95c0-.11,0-.23-.04-.33-.13-.45-.48-.79-1-.79-.69,0-1.2,.6-1.2,1.59,0,.83,.42,1.5,1.19,1.5,.46,0,.86-.3,1-.74,.03-.13,.05-.3,.05-.44v-.79Z"/><path class="cls-15" d="M366.65,282.72c0,1.79-1.26,2.59-2.5,2.59-1.38,0-2.44-.95-2.44-2.51s1.05-2.58,2.52-2.58,2.42,1.02,2.42,2.5Zm-3.67,.05c0,.94,.46,1.65,1.21,1.65,.7,0,1.19-.69,1.19-1.67,0-.76-.34-1.63-1.18-1.63s-1.22,.84-1.22,1.65Z"/><path class="cls-15" d="M370.4,285.2l-.08-.54h-.03c-.3,.38-.81,.65-1.44,.65-.98,0-1.53-.71-1.53-1.45,0-1.23,1.09-1.85,2.89-1.84v-.08c0-.32-.13-.85-.99-.85-.48,0-.98,.15-1.31,.36l-.24-.8c.36-.22,.99-.43,1.76-.43,1.56,0,2.01,.99,2.01,2.05v1.76c0,.44,.02,.87,.07,1.17h-1.11Zm-.16-2.38c-.87-.02-1.7,.17-1.7,.91,0,.48,.31,.7,.7,.7,.49,0,.85-.32,.96-.67,.03-.09,.04-.19,.04-.27v-.67Z"/><path class="cls-15" d="M372.74,278.1h1.24v7.1h-1.24v-7.1Z"/><path class="cls-15" d="M375.25,284.07c.28,.17,.81,.35,1.25,.35,.54,0,.78-.22,.78-.54s-.2-.5-.8-.71c-.95-.33-1.35-.85-1.34-1.42,0-.86,.71-1.53,1.84-1.53,.54,0,1.01,.14,1.29,.29l-.24,.87c-.21-.12-.6-.28-1.03-.28s-.68,.21-.68,.51,.23,.46,.85,.68c.88,.32,1.29,.77,1.3,1.49,0,.88-.69,1.52-1.98,1.52-.59,0-1.12-.14-1.48-.34l.24-.89Z"/></g><g><path class="cls-15" d="M283.55,294.04h-2.62v2.43h2.92v.73h-3.79v-6.74h3.64v.73h-2.77v2.13h2.62v.72Z"/><path class="cls-15" d="M284.96,293.67c0-.5,0-.91-.04-1.31h.77l.04,.78h.03c.27-.46,.72-.89,1.52-.89,.66,0,1.16,.4,1.37,.97h.02c.15-.27,.34-.48,.54-.63,.29-.22,.61-.34,1.07-.34,.64,0,1.59,.42,1.59,2.1v2.85h-.86v-2.74c0-.93-.34-1.49-1.05-1.49-.5,0-.89,.37-1.04,.8-.04,.12-.07,.28-.07,.44v2.99h-.86v-2.9c0-.77-.34-1.33-1.01-1.33-.55,0-.95,.44-1.09,.88-.05,.13-.07,.28-.07,.43v2.92h-.86v-3.53Z"/><path class="cls-15" d="M294.27,291c0,.3-.21,.54-.56,.54-.31,0-.53-.24-.53-.54s.23-.55,.55-.55,.54,.24,.54,.55Zm-.98,6.2v-4.84h.88v4.84h-.88Z"/><path class="cls-15" d="M295.51,296.3c.26,.17,.72,.35,1.16,.35,.64,0,.94-.32,.94-.72,0-.42-.25-.65-.9-.89-.87-.31-1.28-.79-1.28-1.37,0-.78,.63-1.42,1.67-1.42,.49,0,.92,.14,1.19,.3l-.22,.64c-.19-.12-.54-.28-.99-.28-.52,0-.81,.3-.81,.66,0,.4,.29,.58,.92,.82,.84,.32,1.27,.74,1.27,1.46,0,.85-.66,1.45-1.81,1.45-.53,0-1.02-.13-1.36-.33l.22-.67Z"/><path class="cls-15" d="M299.47,296.3c.26,.17,.72,.35,1.16,.35,.64,0,.94-.32,.94-.72,0-.42-.25-.65-.9-.89-.87-.31-1.28-.79-1.28-1.37,0-.78,.63-1.42,1.67-1.42,.49,0,.92,.14,1.19,.3l-.22,.64c-.19-.12-.54-.28-.99-.28-.52,0-.81,.3-.81,.66,0,.4,.29,.58,.92,.82,.84,.32,1.27,.74,1.27,1.46,0,.85-.66,1.45-1.81,1.45-.53,0-1.02-.13-1.36-.33l.22-.67Z"/><path class="cls-15" d="M304.53,291c0,.3-.21,.54-.56,.54-.31,0-.53-.24-.53-.54s.23-.55,.55-.55,.54,.24,.54,.55Zm-.98,6.2v-4.84h.88v4.84h-.88Z"/><path class="cls-15" d="M310.27,294.74c0,1.79-1.24,2.57-2.41,2.57-1.31,0-2.32-.96-2.32-2.49,0-1.62,1.06-2.57,2.4-2.57s2.33,1.01,2.33,2.49Zm-3.84,.05c0,1.06,.61,1.86,1.47,1.86s1.47-.79,1.47-1.88c0-.82-.41-1.86-1.45-1.86s-1.49,.96-1.49,1.88Z"/><path class="cls-15" d="M311.39,293.67c0-.5,0-.91-.04-1.31h.78l.05,.8h.02c.24-.46,.8-.91,1.6-.91,.67,0,1.71,.4,1.71,2.06v2.89h-.88v-2.79c0-.78-.29-1.43-1.12-1.43-.58,0-1.03,.41-1.18,.9-.04,.11-.06,.26-.06,.41v2.91h-.88v-3.53Z"/><path class="cls-15" d="M316.81,296.3c.26,.17,.72,.35,1.16,.35,.64,0,.94-.32,.94-.72,0-.42-.25-.65-.9-.89-.87-.31-1.28-.79-1.28-1.37,0-.78,.63-1.42,1.67-1.42,.49,0,.92,.14,1.19,.3l-.22,.64c-.19-.12-.54-.28-.99-.28-.52,0-.81,.3-.81,.66,0,.4,.29,.58,.92,.82,.84,.32,1.27,.74,1.27,1.46,0,.85-.66,1.45-1.81,1.45-.53,0-1.02-.13-1.36-.33l.22-.67Z"/><path class="cls-15" d="M320.23,298.43c.22-.59,.49-1.66,.6-2.39l.98-.1c-.23,.85-.67,1.96-.95,2.43l-.63,.06Z"/><path class="cls-15" d="M328.43,297.02c-.23,.12-.74,.28-1.39,.28-1.46,0-2.41-.99-2.41-2.47s1.02-2.57,2.6-2.57c.52,0,.98,.13,1.22,.25l-.2,.68c-.21-.12-.54-.23-1.02-.23-1.11,0-1.71,.82-1.71,1.83,0,1.12,.72,1.81,1.68,1.81,.5,0,.83-.13,1.08-.24l.15,.66Z"/><path class="cls-15" d="M332.14,297.2l-.07-.61h-.03c-.27,.38-.79,.72-1.48,.72-.98,0-1.48-.69-1.48-1.39,0-1.17,1.04-1.81,2.91-1.8v-.1c0-.4-.11-1.12-1.1-1.12-.45,0-.92,.14-1.26,.36l-.2-.58c.4-.26,.98-.43,1.59-.43,1.48,0,1.84,1.01,1.84,1.98v1.81c0,.42,.02,.83,.08,1.16h-.8Zm-.13-2.47c-.96-.02-2.05,.15-2.05,1.09,0,.57,.38,.84,.83,.84,.63,0,1.03-.4,1.17-.81,.03-.09,.05-.19,.05-.28v-.84Z"/><path class="cls-15" d="M334.28,293.87c0-.57,0-1.06-.04-1.51h.77l.03,.95h.04c.22-.65,.75-1.06,1.34-1.06,.1,0,.17,0,.25,.03v.83c-.09-.02-.18-.03-.3-.03-.62,0-1.06,.47-1.18,1.13-.02,.12-.04,.26-.04,.41v2.58h-.87v-3.33Z"/><path class="cls-15" d="M337.54,297.2c.02-.33,.04-.82,.04-1.25v-5.85h.87v3.04h.02c.31-.54,.87-.89,1.65-.89,1.2,0,2.05,1,2.04,2.47,0,1.73-1.09,2.59-2.17,2.59-.7,0-1.26-.27-1.62-.91h-.03l-.04,.8h-.76Zm.91-1.94c0,.11,.02,.22,.04,.32,.17,.61,.68,1.03,1.32,1.03,.92,0,1.47-.75,1.47-1.86,0-.97-.5-1.8-1.44-1.8-.6,0-1.16,.41-1.34,1.08-.02,.1-.05,.22-.05,.36v.87Z"/><path class="cls-15" d="M347.65,294.74c0,1.79-1.24,2.57-2.41,2.57-1.31,0-2.32-.96-2.32-2.49,0-1.62,1.06-2.57,2.4-2.57s2.33,1.01,2.33,2.49Zm-3.84,.05c0,1.06,.61,1.86,1.47,1.86s1.47-.79,1.47-1.88c0-.82-.41-1.86-1.45-1.86s-1.49,.96-1.49,1.88Z"/><path class="cls-15" d="M348.76,293.67c0-.5,0-.91-.04-1.31h.78l.05,.8h.02c.24-.46,.8-.91,1.6-.91,.67,0,1.71,.4,1.71,2.06v2.89h-.88v-2.79c0-.78-.29-1.43-1.12-1.43-.58,0-1.03,.41-1.18,.9-.04,.11-.06,.26-.06,.41v2.91h-.88v-3.53Z"/><path class="cls-15" d="M356.52,297.2v-4.17h-.68v-.67h.68v-.23c0-.68,.15-1.3,.56-1.69,.33-.32,.77-.45,1.18-.45,.31,0,.58,.07,.75,.14l-.12,.68c-.13-.06-.31-.11-.56-.11-.75,0-.94,.66-.94,1.4v.26h1.17v.67h-1.17v4.17h-.87Z"/><path class="cls-15" d="M363.61,294.74c0,1.79-1.24,2.57-2.41,2.57-1.31,0-2.32-.96-2.32-2.49,0-1.62,1.06-2.57,2.4-2.57s2.33,1.01,2.33,2.49Zm-3.84,.05c0,1.06,.61,1.86,1.47,1.86s1.47-.79,1.47-1.88c0-.82-.41-1.86-1.45-1.86s-1.49,.96-1.49,1.88Z"/><path class="cls-15" d="M369.1,294.74c0,1.79-1.24,2.57-2.41,2.57-1.31,0-2.32-.96-2.32-2.49,0-1.62,1.06-2.57,2.4-2.57s2.33,1.01,2.33,2.49Zm-3.84,.05c0,1.06,.61,1.86,1.47,1.86s1.47-.79,1.47-1.88c0-.82-.41-1.86-1.45-1.86s-1.49,.96-1.49,1.88Z"/><path class="cls-15" d="M371.27,290.97v1.39h1.26v.67h-1.26v2.61c0,.6,.17,.94,.66,.94,.23,0,.4-.03,.51-.06l.04,.66c-.17,.07-.44,.12-.78,.12-.41,0-.74-.13-.95-.37-.25-.26-.34-.69-.34-1.26v-2.64h-.75v-.67h.75v-1.16l.86-.23Z"/><path class="cls-15" d="M373.52,293.94c0-.62-.02-1.12-.04-1.58h.79l.04,.83h.02c.36-.59,.93-.94,1.72-.94,1.17,0,2.05,.99,2.05,2.46,0,1.74-1.06,2.6-2.2,2.6-.64,0-1.2-.28-1.49-.76h-.02v2.63h-.87v-5.24Zm.87,1.29c0,.13,.02,.25,.04,.36,.16,.61,.69,1.03,1.32,1.03,.93,0,1.47-.76,1.47-1.87,0-.97-.51-1.8-1.44-1.8-.6,0-1.16,.43-1.33,1.09-.03,.11-.06,.24-.06,.36v.83Z"/><path class="cls-15" d="M379.21,293.87c0-.57,0-1.06-.04-1.51h.77l.03,.95h.04c.22-.65,.75-1.06,1.34-1.06,.1,0,.17,0,.25,.03v.83c-.09-.02-.18-.03-.3-.03-.62,0-1.06,.47-1.18,1.13-.02,.12-.04,.26-.04,.41v2.58h-.87v-3.33Z"/><path class="cls-15" d="M383.49,291c0,.3-.21,.54-.56,.54-.31,0-.53-.24-.53-.54s.23-.55,.55-.55,.54,.24,.54,.55Zm-.98,6.2v-4.84h.88v4.84h-.88Z"/><path class="cls-15" d="M384.85,293.67c0-.5,0-.91-.04-1.31h.78l.05,.8h.02c.24-.46,.8-.91,1.6-.91,.67,0,1.71,.4,1.71,2.06v2.89h-.88v-2.79c0-.78-.29-1.43-1.12-1.43-.58,0-1.03,.41-1.18,.9-.04,.11-.06,.26-.06,.41v2.91h-.88v-3.53Z"/><path class="cls-15" d="M391.43,290.97v1.39h1.26v.67h-1.26v2.61c0,.6,.17,.94,.66,.94,.23,0,.4-.03,.51-.06l.04,.66c-.17,.07-.44,.12-.78,.12-.41,0-.74-.13-.95-.37-.25-.26-.34-.69-.34-1.26v-2.64h-.75v-.67h.75v-1.16l.86-.23Z"/><path class="cls-15" d="M393.08,298.43c.22-.59,.49-1.66,.6-2.39l.98-.1c-.23,.85-.67,1.96-.95,2.43l-.63,.06Z"/></g><g><path class="cls-15" d="M326.05,304.36l.64,2.46c.14,.54,.27,1.04,.36,1.54h.03c.11-.49,.27-1.01,.43-1.53l.79-2.47h.74l.75,2.42c.18,.58,.32,1.09,.43,1.58h.03c.08-.49,.21-1,.37-1.57l.69-2.43h.87l-1.56,4.84h-.8l-.74-2.31c-.17-.54-.31-1.02-.43-1.59h-.02c-.12,.58-.27,1.08-.44,1.6l-.78,2.3h-.8l-1.46-4.84h.9Z"/><path class="cls-15" d="M335.69,309.2l-.07-.61h-.03c-.27,.38-.79,.72-1.48,.72-.98,0-1.48-.69-1.48-1.39,0-1.17,1.04-1.81,2.91-1.8v-.1c0-.4-.11-1.12-1.1-1.12-.45,0-.92,.14-1.26,.36l-.2-.58c.4-.26,.98-.43,1.59-.43,1.48,0,1.84,1.01,1.84,1.98v1.81c0,.42,.02,.83,.08,1.16h-.8Zm-.13-2.47c-.96-.02-2.05,.15-2.05,1.09,0,.57,.38,.84,.83,.84,.63,0,1.03-.4,1.17-.81,.03-.09,.05-.19,.05-.28v-.84Z"/><path class="cls-15" d="M337.72,308.3c.26,.17,.72,.35,1.16,.35,.64,0,.94-.32,.94-.72,0-.42-.25-.65-.9-.89-.87-.31-1.28-.79-1.28-1.37,0-.78,.63-1.42,1.67-1.42,.49,0,.92,.14,1.19,.3l-.22,.64c-.19-.12-.54-.28-.99-.28-.52,0-.81,.3-.81,.66,0,.4,.29,.58,.92,.82,.84,.32,1.27,.74,1.27,1.46,0,.85-.66,1.45-1.81,1.45-.53,0-1.02-.13-1.36-.33l.22-.67Z"/><path class="cls-15" d="M342.85,302.97v1.39h1.26v.67h-1.26v2.61c0,.6,.17,.94,.66,.94,.23,0,.4-.03,.51-.06l.04,.66c-.17,.07-.44,.12-.78,.12-.41,0-.74-.13-.95-.37-.25-.26-.34-.69-.34-1.26v-2.64h-.75v-.67h.75v-1.16l.86-.23Z"/><path class="cls-15" d="M345.55,306.94c.02,1.19,.78,1.68,1.66,1.68,.63,0,1.01-.11,1.34-.25l.15,.63c-.31,.14-.84,.3-1.61,.3-1.49,0-2.38-.98-2.38-2.44s.86-2.61,2.27-2.61c1.58,0,2,1.39,2,2.28,0,.18-.02,.32-.03,.41h-3.4Zm2.58-.63c0-.56-.23-1.43-1.22-1.43-.89,0-1.28,.82-1.35,1.43h2.57Z"/></g><g><path class="cls-15" d="M60.26,250.68h-3.14v2.91h3.5v.88h-4.55v-8.08h4.37v.88h-3.32v2.55h3.14v.86Z"/><path class="cls-15" d="M61.98,246.38h4.35v.88h-3.31v2.69h3.06v.86h-3.06v3.66h-1.04v-8.08Z"/><path class="cls-15" d="M67.82,246.38h4.35v.88h-3.31v2.69h3.06v.86h-3.06v3.66h-1.04v-8.08Z"/><path class="cls-15" d="M74.71,246.38v8.08h-1.04v-8.08h1.04Z"/><path class="cls-15" d="M82.18,254.2c-.38,.19-1.15,.38-2.13,.38-2.28,0-3.99-1.44-3.99-4.09s1.71-4.25,4.22-4.25c1.01,0,1.64,.22,1.92,.36l-.25,.85c-.4-.19-.96-.34-1.63-.34-1.89,0-3.15,1.21-3.15,3.33,0,1.98,1.14,3.25,3.11,3.25,.64,0,1.28-.13,1.7-.34l.22,.83Z"/><path class="cls-15" d="M84.54,246.38v8.08h-1.04v-8.08h1.04Z"/><path class="cls-15" d="M90.55,250.68h-3.14v2.91h3.5v.88h-4.55v-8.08h4.37v.88h-3.32v2.55h3.14v.86Z"/><path class="cls-15" d="M92.27,254.47v-8.08h1.14l2.59,4.09c.6,.95,1.07,1.8,1.45,2.63h.02c-.1-1.09-.12-2.07-.12-3.33v-3.38h.98v8.08h-1.06l-2.57-4.1c-.56-.9-1.1-1.82-1.51-2.7h-.04c.06,1.03,.08,2,.08,3.35v3.45h-.98Z"/><path class="cls-15" d="M105.81,254.2c-.38,.19-1.15,.38-2.13,.38-2.28,0-3.99-1.44-3.99-4.09s1.71-4.25,4.22-4.25c1.01,0,1.64,.22,1.92,.36l-.25,.85c-.4-.19-.96-.34-1.63-.34-1.89,0-3.15,1.21-3.15,3.33,0,1.98,1.14,3.25,3.11,3.25,.64,0,1.28-.13,1.7-.34l.22,.83Z"/><path class="cls-15" d="M108.96,254.47v-3.43l-2.55-4.65h1.19l1.14,2.23c.31,.61,.55,1.1,.8,1.67h.02c.23-.53,.5-1.06,.82-1.67l1.16-2.23h1.19l-2.71,4.64v3.44h-1.05Z"/></g><g><path class="cls-15" d="M35.05,271.29l-.58,1.91h-1.27l2.16-6.74h1.57l2.19,6.74h-1.32l-.61-1.91h-2.14Zm1.93-.93l-.53-1.66c-.13-.41-.24-.87-.34-1.26h-.02c-.1,.39-.2,.86-.32,1.26l-.52,1.66h1.73Z"/><path class="cls-15" d="M44.24,271.74c0,.58,.02,1.06,.04,1.46h-1.08l-.06-.74h-.02c-.21,.35-.69,.85-1.56,.85s-1.7-.53-1.7-2.12v-2.86h1.23v2.65c0,.81,.26,1.33,.91,1.33,.49,0,.81-.35,.94-.66,.04-.11,.07-.24,.07-.38v-2.94h1.23v3.41Z"/><path class="cls-15" d="M46.98,266.94v1.39h1.17v.92h-1.17v2.15c0,.59,.16,.9,.63,.9,.21,0,.37-.03,.48-.06l.02,.94c-.18,.07-.5,.12-.89,.12-.45,0-.83-.15-1.06-.4-.26-.28-.38-.72-.38-1.36v-2.29h-.7v-.92h.7v-1.1l1.2-.29Z"/><path class="cls-15" d="M53.65,270.72c0,1.79-1.26,2.59-2.5,2.59-1.38,0-2.44-.95-2.44-2.51s1.05-2.58,2.52-2.58,2.42,1.02,2.42,2.5Zm-3.67,.05c0,.94,.46,1.65,1.21,1.65,.7,0,1.19-.69,1.19-1.67,0-.76-.34-1.63-1.18-1.63s-1.22,.84-1.22,1.65Z"/><path class="cls-15" d="M54.66,269.78c0-.56,0-1.03-.04-1.45h1.06l.05,.72h.03c.24-.38,.68-.83,1.5-.83,.64,0,1.14,.36,1.35,.9h.02c.17-.27,.37-.47,.6-.61,.27-.19,.58-.29,.98-.29,.81,0,1.63,.55,1.63,2.11v2.87h-1.2v-2.69c0-.81-.28-1.29-.87-1.29-.42,0-.73,.3-.86,.65-.03,.12-.06,.27-.06,.41v2.92h-1.2v-2.82c0-.68-.27-1.16-.84-1.16-.46,0-.77,.36-.88,.7-.05,.12-.07,.26-.07,.4v2.88h-1.2v-3.42Z"/><path class="cls-15" d="M65.88,273.2l-.08-.54h-.03c-.3,.38-.81,.65-1.44,.65-.98,0-1.53-.71-1.53-1.45,0-1.23,1.09-1.85,2.89-1.84v-.08c0-.32-.13-.85-.99-.85-.48,0-.98,.15-1.31,.36l-.24-.8c.36-.22,.99-.43,1.76-.43,1.56,0,2.01,.99,2.01,2.05v1.76c0,.44,.02,.87,.07,1.17h-1.11Zm-.16-2.38c-.87-.02-1.7,.17-1.7,.91,0,.48,.31,.7,.7,.7,.49,0,.85-.32,.96-.67,.03-.09,.04-.19,.04-.27v-.67Z"/><path class="cls-15" d="M69.58,266.94v1.39h1.17v.92h-1.17v2.15c0,.59,.16,.9,.63,.9,.21,0,.37-.03,.48-.06l.02,.94c-.18,.07-.5,.12-.89,.12-.45,0-.83-.15-1.06-.4-.26-.28-.38-.72-.38-1.36v-2.29h-.7v-.92h.7v-1.1l1.2-.29Z"/><path class="cls-15" d="M72.49,271.11c.03,.88,.72,1.26,1.5,1.26,.57,0,.98-.08,1.35-.22l.18,.85c-.42,.17-1,.3-1.7,.3-1.58,0-2.51-.97-2.51-2.46,0-1.35,.82-2.62,2.38-2.62s2.1,1.3,2.1,2.37c0,.23-.02,.41-.04,.52h-3.26Zm2.14-.86c0-.45-.19-1.19-1.01-1.19-.76,0-1.08,.69-1.13,1.19h2.14Z"/><path class="cls-15" d="M81.59,273.2l-.08-.54h-.03c-.3,.38-.81,.65-1.44,.65-.98,0-1.53-.71-1.53-1.45,0-1.23,1.09-1.85,2.89-1.84v-.08c0-.32-.13-.85-.99-.85-.48,0-.98,.15-1.31,.36l-.24-.8c.36-.22,.99-.43,1.76-.43,1.56,0,2.01,.99,2.01,2.05v1.76c0,.44,.02,.87,.07,1.17h-1.11Zm-.16-2.38c-.87-.02-1.7,.17-1.7,.91,0,.48,.31,.7,.7,.7,.49,0,.85-.32,.96-.67,.03-.09,.04-.19,.04-.27v-.67Z"/><path class="cls-15" d="M83.93,269.78c0-.56,0-1.03-.04-1.45h1.08l.06,.73h.03c.21-.38,.74-.84,1.55-.84,.85,0,1.73,.55,1.73,2.09v2.89h-1.23v-2.75c0-.7-.26-1.23-.93-1.23-.49,0-.83,.35-.96,.72-.04,.11-.05,.26-.05,.4v2.86h-1.24v-3.42Z"/><path class="cls-15" d="M94.14,266.1v5.73c0,.5,.02,1.04,.04,1.37h-1.1l-.05-.77h-.02c-.29,.54-.88,.88-1.59,.88-1.16,0-2.08-.99-2.08-2.49,0-1.63,1.01-2.6,2.18-2.6,.67,0,1.15,.28,1.37,.64h.02v-2.76h1.23Zm-1.23,4.26c0-.1,0-.22-.03-.32-.11-.48-.5-.87-1.06-.87-.79,0-1.23,.7-1.23,1.61s.44,1.54,1.22,1.54c.5,0,.94-.34,1.06-.87,.03-.11,.04-.23,.04-.36v-.73Z"/><path class="cls-15" d="M102.16,270.72c0,1.79-1.26,2.59-2.5,2.59-1.38,0-2.44-.95-2.44-2.51s1.05-2.58,2.52-2.58,2.42,1.02,2.42,2.5Zm-3.67,.05c0,.94,.46,1.65,1.21,1.65,.7,0,1.19-.69,1.19-1.67,0-.76-.34-1.63-1.18-1.63s-1.22,.84-1.22,1.65Z"/><path class="cls-15" d="M103.17,269.95c0-.64-.02-1.16-.04-1.62h1.08l.06,.75h.02c.36-.55,.93-.86,1.67-.86,1.12,0,2.05,.96,2.05,2.48,0,1.76-1.11,2.61-2.22,2.61-.61,0-1.12-.26-1.37-.65h-.02v2.52h-1.23v-5.23Zm1.23,1.21c0,.12,.01,.23,.04,.34,.12,.5,.56,.86,1.08,.86,.78,0,1.24-.65,1.24-1.61,0-.86-.42-1.56-1.21-1.56-.51,0-.98,.37-1.1,.91-.03,.1-.05,.21-.05,.31v.75Z"/><path class="cls-15" d="M110.43,266.94v1.39h1.17v.92h-1.17v2.15c0,.59,.16,.9,.63,.9,.21,0,.37-.03,.48-.06l.02,.94c-.18,.07-.5,.12-.89,.12-.45,0-.83-.15-1.06-.4-.26-.28-.38-.72-.38-1.36v-2.29h-.7v-.92h.7v-1.1l1.2-.29Z"/><path class="cls-15" d="M113.84,266.97c0,.37-.27,.66-.7,.66s-.68-.29-.68-.66,.28-.67,.69-.67,.68,.29,.69,.67Zm-1.31,6.23v-4.87h1.24v4.87h-1.24Z"/><path class="cls-15" d="M115.09,269.78c0-.56,0-1.03-.04-1.45h1.06l.05,.72h.03c.24-.38,.68-.83,1.5-.83,.64,0,1.14,.36,1.35,.9h.02c.17-.27,.37-.47,.6-.61,.27-.19,.58-.29,.98-.29,.81,0,1.63,.55,1.63,2.11v2.87h-1.2v-2.69c0-.81-.28-1.29-.87-1.29-.42,0-.73,.3-.86,.65-.03,.12-.06,.27-.06,.41v2.92h-1.2v-2.82c0-.68-.27-1.16-.84-1.16-.46,0-.77,.36-.88,.7-.05,.12-.07,.26-.07,.4v2.88h-1.2v-3.42Z"/><path class="cls-15" d="M124.88,266.97c0,.37-.27,.66-.7,.66s-.68-.29-.68-.66,.28-.67,.69-.67,.68,.29,.69,.67Zm-1.31,6.23v-4.87h1.24v4.87h-1.24Z"/><path class="cls-15" d="M125.67,272.49l1.83-2.34c.25-.3,.46-.54,.72-.82v-.02h-2.37v-.98h3.87v.75l-1.79,2.29c-.24,.29-.47,.57-.72,.83v.02h2.57v.98h-4.11v-.71Z"/><path class="cls-15" d="M131.44,271.11c.03,.88,.72,1.26,1.5,1.26,.57,0,.98-.08,1.35-.22l.18,.85c-.42,.17-1,.3-1.7,.3-1.58,0-2.51-.97-2.51-2.46,0-1.35,.82-2.62,2.38-2.62s2.1,1.3,2.1,2.37c0,.23-.02,.41-.04,.52h-3.26Zm2.14-.86c0-.45-.19-1.19-1.01-1.19-.76,0-1.08,.69-1.13,1.19h2.14Z"/></g><g><path class="cls-15" d="M38.87,283.11c.03,.88,.72,1.26,1.5,1.26,.57,0,.98-.08,1.35-.22l.18,.85c-.42,.17-1,.3-1.7,.3-1.58,0-2.51-.97-2.51-2.46,0-1.35,.82-2.62,2.38-2.62s2.1,1.3,2.1,2.37c0,.23-.02,.41-.04,.52h-3.26Zm2.14-.86c0-.45-.19-1.19-1.01-1.19-.76,0-1.08,.69-1.13,1.19h2.14Z"/><path class="cls-15" d="M43.16,281.78c0-.56,0-1.03-.04-1.45h1.08l.06,.73h.03c.21-.38,.74-.84,1.55-.84,.85,0,1.73,.55,1.73,2.09v2.89h-1.23v-2.75c0-.7-.26-1.23-.93-1.23-.49,0-.83,.35-.96,.72-.04,.11-.05,.26-.05,.4v2.86h-1.24v-3.42Z"/><path class="cls-15" d="M53.37,278.1v5.73c0,.5,.02,1.04,.04,1.37h-1.1l-.05-.77h-.02c-.29,.54-.88,.88-1.59,.88-1.16,0-2.08-.99-2.08-2.49,0-1.63,1.01-2.6,2.18-2.6,.67,0,1.15,.28,1.37,.64h.02v-2.76h1.23Zm-1.23,4.26c0-.1,0-.22-.03-.32-.11-.48-.5-.87-1.06-.87-.79,0-1.23,.7-1.23,1.61s.44,1.54,1.22,1.54c.5,0,.94-.34,1.06-.87,.03-.11,.04-.23,.04-.36v-.73Z"/><path class="cls-15" d="M56.88,282.11v.85h-2.55v-.85h2.55Z"/><path class="cls-15" d="M59.25,278.94v1.39h1.17v.92h-1.17v2.15c0,.59,.16,.9,.63,.9,.21,0,.37-.03,.48-.06l.02,.94c-.18,.07-.5,.12-.89,.12-.45,0-.83-.15-1.06-.4-.26-.28-.38-.72-.38-1.36v-2.29h-.7v-.92h.7v-1.1l1.2-.29Z"/><path class="cls-15" d="M65.93,282.72c0,1.79-1.26,2.59-2.5,2.59-1.38,0-2.44-.95-2.44-2.51s1.05-2.58,2.52-2.58,2.42,1.02,2.42,2.5Zm-3.67,.05c0,.94,.46,1.65,1.21,1.65,.7,0,1.19-.69,1.19-1.67,0-.76-.34-1.63-1.18-1.63s-1.22,.84-1.22,1.65Z"/><path class="cls-15" d="M69.27,282.11v.85h-2.55v-.85h2.55Z"/><path class="cls-15" d="M71.26,283.11c.03,.88,.72,1.26,1.5,1.26,.57,0,.98-.08,1.35-.22l.18,.85c-.42,.17-1,.3-1.7,.3-1.58,0-2.51-.97-2.51-2.46,0-1.35,.82-2.62,2.38-2.62s2.1,1.3,2.1,2.37c0,.23-.02,.41-.04,.52h-3.26Zm2.14-.86c0-.45-.19-1.19-1.01-1.19-.76,0-1.08,.69-1.13,1.19h2.14Z"/><path class="cls-15" d="M75.55,281.78c0-.56,0-1.03-.04-1.45h1.08l.06,.73h.03c.21-.38,.74-.84,1.55-.84,.85,0,1.73,.55,1.73,2.09v2.89h-1.23v-2.75c0-.7-.26-1.23-.93-1.23-.49,0-.83,.35-.96,.72-.04,.11-.05,.26-.05,.4v2.86h-1.24v-3.42Z"/><path class="cls-15" d="M85.76,278.1v5.73c0,.5,.02,1.04,.04,1.37h-1.1l-.05-.77h-.02c-.29,.54-.88,.88-1.59,.88-1.16,0-2.08-.99-2.08-2.49,0-1.63,1.01-2.6,2.18-2.6,.67,0,1.15,.28,1.37,.64h.02v-2.76h1.23Zm-1.23,4.26c0-.1,0-.22-.03-.32-.11-.48-.5-.87-1.06-.87-.79,0-1.23,.7-1.23,1.61s.44,1.54,1.22,1.54c.5,0,.94-.34,1.06-.87,.03-.11,.04-.23,.04-.36v-.73Z"/><path class="cls-15" d="M89.15,281.95c0-.64-.02-1.16-.04-1.62h1.08l.06,.75h.02c.36-.55,.93-.86,1.67-.86,1.12,0,2.05,.96,2.05,2.48,0,1.76-1.11,2.61-2.22,2.61-.61,0-1.12-.26-1.37-.65h-.02v2.52h-1.23v-5.23Zm1.23,1.21c0,.12,.01,.23,.04,.34,.12,.5,.56,.86,1.08,.86,.78,0,1.24-.65,1.24-1.61,0-.86-.42-1.56-1.21-1.56-.51,0-.98,.37-1.1,.91-.03,.1-.05,.21-.05,.31v.75Z"/><path class="cls-15" d="M95,281.9c0-.66,0-1.13-.04-1.57h1.07l.04,.93h.04c.24-.69,.81-1.04,1.33-1.04,.12,0,.19,0,.29,.03v1.16c-.1-.02-.21-.04-.36-.04-.59,0-.99,.38-1.1,.93-.02,.11-.04,.24-.04,.38v2.52h-1.23v-3.3Z"/><path class="cls-15" d="M103.1,282.72c0,1.79-1.26,2.59-2.5,2.59-1.38,0-2.44-.95-2.44-2.51s1.05-2.58,2.52-2.58,2.42,1.02,2.42,2.5Zm-3.67,.05c0,.94,.46,1.65,1.21,1.65,.7,0,1.19-.69,1.19-1.67,0-.76-.34-1.63-1.18-1.63s-1.22,.84-1.22,1.65Z"/><path class="cls-15" d="M107.69,285.05c-.26,.12-.77,.25-1.38,.25-1.52,0-2.51-.97-2.51-2.48s1-2.6,2.71-2.6c.45,0,.91,.1,1.19,.23l-.22,.92c-.2-.09-.49-.19-.93-.19-.94,0-1.5,.69-1.49,1.58,0,1,.65,1.57,1.49,1.57,.43,0,.73-.09,.97-.19l.17,.91Z"/><path class="cls-15" d="M109.39,283.11c.03,.88,.72,1.26,1.5,1.26,.57,0,.98-.08,1.35-.22l.18,.85c-.42,.17-1,.3-1.7,.3-1.58,0-2.51-.97-2.51-2.46,0-1.35,.82-2.62,2.38-2.62s2.1,1.3,2.1,2.37c0,.23-.02,.41-.04,.52h-3.26Zm2.14-.86c0-.45-.19-1.19-1.01-1.19-.76,0-1.08,.69-1.13,1.19h2.14Z"/><path class="cls-15" d="M113.62,284.07c.28,.17,.81,.35,1.25,.35,.54,0,.78-.22,.78-.54s-.2-.5-.8-.71c-.95-.33-1.35-.85-1.34-1.42,0-.86,.71-1.53,1.84-1.53,.54,0,1.01,.14,1.29,.29l-.24,.87c-.21-.12-.6-.28-1.03-.28s-.68,.21-.68,.51,.23,.46,.85,.68c.88,.32,1.29,.77,1.3,1.49,0,.88-.69,1.52-1.98,1.52-.59,0-1.12-.14-1.48-.34l.24-.89Z"/><path class="cls-15" d="M117.79,284.07c.28,.17,.81,.35,1.25,.35,.54,0,.78-.22,.78-.54s-.2-.5-.8-.71c-.95-.33-1.35-.85-1.34-1.42,0-.86,.71-1.53,1.84-1.53,.54,0,1.01,.14,1.29,.29l-.24,.87c-.21-.12-.6-.28-1.03-.28s-.68,.21-.68,.51,.23,.46,.85,.68c.88,.32,1.29,.77,1.3,1.49,0,.88-.69,1.52-1.98,1.52-.59,0-1.12-.14-1.48-.34l.24-.89Z"/><path class="cls-15" d="M122.89,283.11c.03,.88,.72,1.26,1.5,1.26,.57,0,.98-.08,1.35-.22l.18,.85c-.42,.17-1,.3-1.7,.3-1.58,0-2.51-.97-2.51-2.46,0-1.35,.82-2.62,2.38-2.62s2.1,1.3,2.1,2.37c0,.23-.02,.41-.04,.52h-3.26Zm2.14-.86c0-.45-.19-1.19-1.01-1.19-.76,0-1.08,.69-1.13,1.19h2.14Z"/><path class="cls-15" d="M127.12,284.07c.28,.17,.81,.35,1.25,.35,.54,0,.78-.22,.78-.54s-.2-.5-.8-.71c-.95-.33-1.35-.85-1.34-1.42,0-.86,.71-1.53,1.84-1.53,.54,0,1.01,.14,1.29,.29l-.24,.87c-.21-.12-.6-.28-1.03-.28s-.68,.21-.68,.51,.23,.46,.85,.68c.88,.32,1.29,.77,1.3,1.49,0,.88-.69,1.52-1.98,1.52-.59,0-1.12-.14-1.48-.34l.24-.89Z"/></g><path class="cls-15" d="M42.81,290.54c.42-.07,.97-.13,1.67-.13,.86,0,1.49,.2,1.89,.56,.37,.32,.59,.81,.59,1.41s-.18,1.09-.52,1.44c-.46,.49-1.21,.74-2.06,.74-.26,0-.5-.01-.7-.06v2.7h-.87v-6.66Zm.87,3.25c.19,.05,.43,.07,.72,.07,1.05,0,1.69-.51,1.69-1.44s-.63-1.32-1.59-1.32c-.38,0-.67,.03-.82,.07v2.62Zm4.26,.08c0-.57,0-1.06-.04-1.51h.77l.03,.95h.04c.22-.65,.75-1.06,1.34-1.06,.1,0,.17,0,.25,.03v.83c-.09-.02-.18-.03-.3-.03-.62,0-1.06,.47-1.18,1.13-.02,.12-.04,.26-.04,.41v2.58h-.87v-3.33Zm7.55,.87c0,1.79-1.24,2.57-2.41,2.57-1.31,0-2.32-.96-2.32-2.49,0-1.62,1.06-2.57,2.4-2.57s2.33,1.01,2.33,2.49Zm-3.84,.05c0,1.06,.61,1.86,1.47,1.86s1.47-.79,1.47-1.88c0-.82-.41-1.86-1.45-1.86s-1.49,.96-1.49,1.88Zm5.04,2.41v-4.17h-.68v-.67h.68v-.26c0-1.28,.75-2.11,2.11-2.11,.45,0,.98,.14,1.23,.32l-.25,.67c-.21-.15-.59-.28-1.02-.28-.93,0-1.2,.65-1.2,1.42v.24h2.81v4.84h-.87v-4.17h-1.94v4.17h-.87Zm6.2-6.23v1.39h1.26v.67h-1.26v2.61c0,.6,.17,.94,.66,.94,.23,0,.4-.03,.51-.06l.04,.66c-.17,.07-.44,.12-.78,.12-.41,0-.74-.13-.95-.37-.25-.26-.34-.69-.34-1.26v-2.64h-.75v-.67h.75v-1.16l.86-.23Zm4.37,2.7c0-.5,0-.91-.04-1.31h.77l.04,.78h.03c.27-.46,.72-.89,1.52-.89,.66,0,1.16,.4,1.37,.97h.02c.15-.27,.34-.48,.54-.63,.29-.22,.61-.34,1.07-.34,.64,0,1.59,.42,1.59,2.1v2.85h-.86v-2.74c0-.93-.34-1.49-1.05-1.49-.5,0-.89,.37-1.04,.8-.04,.12-.07,.28-.07,.44v2.99h-.86v-2.9c0-.77-.34-1.33-1.01-1.33-.55,0-.95,.44-1.09,.88-.05,.13-.07,.28-.07,.43v2.92h-.86v-3.53Zm11.02,3.53l-.07-.61h-.03c-.27,.38-.79,.72-1.48,.72-.98,0-1.48-.69-1.48-1.39,0-1.17,1.04-1.81,2.91-1.8v-.1c0-.4-.11-1.12-1.1-1.12-.45,0-.92,.14-1.26,.36l-.2-.58c.4-.26,.98-.43,1.59-.43,1.48,0,1.84,1.01,1.84,1.98v1.81c0,.42,.02,.83,.08,1.16h-.8Zm-.13-2.47c-.96-.02-2.05,.15-2.05,1.09,0,.57,.38,.84,.83,.84,.63,0,1.03-.4,1.17-.81,.03-.09,.05-.19,.05-.28v-.84Zm2.27-.86c0-.57,0-1.06-.04-1.51h.77l.03,.95h.04c.22-.65,.75-1.06,1.34-1.06,.1,0,.17,0,.25,.03v.83c-.09-.02-.18-.03-.3-.03-.62,0-1.06,.47-1.18,1.13-.02,.12-.04,.26-.04,.41v2.58h-.87v-3.33Zm7.36-1.51c-.02,.35-.04,.74-.04,1.33v2.81c0,1.11-.22,1.79-.69,2.21-.47,.44-1.15,.58-1.76,.58s-1.22-.14-1.61-.4l.22-.67c.32,.2,.82,.38,1.42,.38,.9,0,1.56-.47,1.56-1.69v-.54h-.02c-.27,.45-.79,.81-1.54,.81-1.2,0-2.06-1.02-2.06-2.36,0-1.64,1.07-2.57,2.18-2.57,.84,0,1.3,.44,1.51,.84h.02l.04-.73h.77Zm-.91,1.91c0-.15,0-.28-.05-.4-.16-.51-.59-.93-1.23-.93-.84,0-1.44,.71-1.44,1.83,0,.95,.48,1.74,1.43,1.74,.54,0,1.03-.34,1.22-.9,.05-.15,.07-.32,.07-.47v-.87Zm3.25-3.27c0,.3-.21,.54-.56,.54-.31,0-.53-.24-.53-.54s.23-.55,.55-.55,.54,.24,.54,.55Zm-.98,6.2v-4.84h.88v4.84h-.88Zm2.34-3.53c0-.5,0-.91-.04-1.31h.78l.05,.8h.02c.24-.46,.8-.91,1.6-.91,.67,0,1.71,.4,1.71,2.06v2.89h-.88v-2.79c0-.78-.29-1.43-1.12-1.43-.58,0-1.03,.41-1.18,.9-.04,.11-.06,.26-.06,.41v2.91h-.88v-3.53Zm5.43,2.63c.26,.17,.72,.35,1.16,.35,.64,0,.94-.32,.94-.72,0-.42-.25-.65-.9-.89-.87-.31-1.28-.79-1.28-1.37,0-.78,.63-1.42,1.67-1.42,.49,0,.92,.14,1.19,.3l-.22,.64c-.19-.12-.54-.28-.99-.28-.52,0-.81,.3-.81,.66,0,.4,.29,.58,.92,.82,.84,.32,1.27,.74,1.27,1.46,0,.85-.66,1.45-1.81,1.45-.53,0-1.02-.13-1.36-.33l.22-.67Zm3.4,2.13c.22-.59,.49-1.66,.6-2.39l.98-.1c-.23,.85-.67,1.96-.95,2.43l-.63,.06Zm4.67-2.29c.39,.24,.96,.44,1.56,.44,.89,0,1.41-.47,1.41-1.15,0-.63-.36-.99-1.27-1.34-1.1-.39-1.78-.96-1.78-1.91,0-1.05,.87-1.83,2.18-1.83,.69,0,1.19,.16,1.49,.33l-.24,.71c-.22-.12-.67-.32-1.28-.32-.92,0-1.27,.55-1.27,1.01,0,.63,.41,.94,1.34,1.3,1.14,.44,1.72,.99,1.72,1.98,0,1.04-.77,1.94-2.36,1.94-.65,0-1.36-.19-1.72-.43l.22-.73Zm5.05-5.68h.87v6.01h2.88v.73h-3.75v-6.74Zm5.81,4.62l-.7,2.12h-.9l2.29-6.74h1.05l2.3,6.74h-.93l-.72-2.12h-2.39Zm2.21-.68l-.66-1.94c-.15-.44-.25-.84-.35-1.23h-.02c-.1,.4-.21,.81-.34,1.22l-.66,1.95h2.03Zm2.61,1.9c.26,.17,.72,.35,1.16,.35,.64,0,.94-.32,.94-.72,0-.42-.25-.65-.9-.89-.87-.31-1.28-.79-1.28-1.37,0-.78,.63-1.42,1.67-1.42,.49,0,.92,.14,1.19,.3l-.22,.64c-.19-.12-.54-.28-.99-.28-.52,0-.81,.3-.81,.66,0,.4,.29,.58,.92,.82,.84,.32,1.27,.74,1.27,1.46,0,.85-.66,1.45-1.81,1.45-.53,0-1.02-.13-1.36-.33l.22-.67Zm3.4,2.13c.22-.59,.49-1.66,.6-2.39l.98-.1c-.23,.85-.67,1.96-.95,2.43l-.63,.06Z"/><g><path class="cls-15" d="M34.99,305.94c0-.62-.02-1.12-.04-1.58h.79l.04,.83h.02c.36-.59,.93-.94,1.72-.94,1.17,0,2.05,.99,2.05,2.46,0,1.74-1.06,2.6-2.2,2.6-.64,0-1.2-.28-1.49-.76h-.02v2.63h-.87v-5.24Zm.87,1.29c0,.13,.02,.25,.04,.36,.16,.61,.69,1.03,1.32,1.03,.93,0,1.47-.76,1.47-1.87,0-.97-.51-1.8-1.44-1.8-.6,0-1.16,.43-1.33,1.09-.03,.11-.06,.24-.06,.36v.83Z"/><path class="cls-15" d="M40.68,305.87c0-.57,0-1.06-.04-1.51h.77l.03,.95h.04c.22-.65,.75-1.06,1.34-1.06,.1,0,.17,0,.25,.03v.83c-.09-.02-.18-.03-.3-.03-.62,0-1.06,.47-1.18,1.13-.02,.12-.04,.26-.04,.41v2.58h-.87v-3.33Z"/><path class="cls-15" d="M48.23,306.74c0,1.79-1.24,2.57-2.41,2.57-1.31,0-2.32-.96-2.32-2.49,0-1.62,1.06-2.57,2.4-2.57s2.33,1.01,2.33,2.49Zm-3.84,.05c0,1.06,.61,1.86,1.47,1.86s1.47-.79,1.47-1.88c0-.82-.41-1.86-1.45-1.86s-1.49,.96-1.49,1.88Z"/><path class="cls-15" d="M53.52,302.1v5.85c0,.43,0,.92,.04,1.25h-.79l-.04-.84h-.02c-.27,.54-.86,.95-1.65,.95-1.17,0-2.07-.99-2.07-2.46,0-1.61,.99-2.6,2.17-2.6,.74,0,1.24,.35,1.46,.74h.02v-2.89h.88Zm-.88,4.23c0-.11,0-.26-.04-.37-.13-.56-.61-1.02-1.27-1.02-.91,0-1.45,.8-1.45,1.87,0,.98,.48,1.79,1.43,1.79,.59,0,1.13-.39,1.29-1.05,.03-.12,.04-.24,.04-.38v-.84Z"/><path class="cls-15" d="M59.03,307.88c0,.5,0,.94,.04,1.32h-.78l-.05-.79h-.02c-.23,.39-.74,.9-1.6,.9-.76,0-1.67-.42-1.67-2.12v-2.83h.88v2.68c0,.92,.28,1.54,1.08,1.54,.59,0,1-.41,1.16-.8,.05-.13,.08-.29,.08-.45v-2.97h.88v3.52Z"/><path class="cls-15" d="M63.94,309.02c-.23,.12-.74,.28-1.39,.28-1.46,0-2.41-.99-2.41-2.47s1.02-2.57,2.6-2.57c.52,0,.98,.13,1.22,.25l-.2,.68c-.21-.12-.54-.23-1.02-.23-1.11,0-1.71,.82-1.71,1.83,0,1.12,.72,1.81,1.68,1.81,.5,0,.83-.13,1.08-.24l.15,.66Z"/><path class="cls-15" d="M66.16,302.97v1.39h1.26v.67h-1.26v2.61c0,.6,.17,.94,.66,.94,.23,0,.4-.03,.51-.06l.04,.66c-.17,.07-.44,.12-.78,.12-.41,0-.74-.13-.95-.37-.25-.26-.34-.69-.34-1.26v-2.64h-.75v-.67h.75v-1.16l.86-.23Z"/><path class="cls-15" d="M69.39,303c0,.3-.21,.54-.56,.54-.31,0-.53-.24-.53-.54s.23-.55,.55-.55,.54,.24,.54,.55Zm-.98,6.2v-4.84h.88v4.84h-.88Z"/><path class="cls-15" d="M71.09,304.36l.95,2.72c.16,.44,.29,.84,.39,1.24h.03c.11-.4,.25-.8,.41-1.24l.94-2.72h.92l-1.9,4.84h-.84l-1.84-4.84h.94Z"/><path class="cls-15" d="M76.54,303c0,.3-.21,.54-.56,.54-.31,0-.53-.24-.53-.54s.23-.55,.55-.55,.54,.24,.54,.55Zm-.98,6.2v-4.84h.88v4.84h-.88Z"/><path class="cls-15" d="M78.96,302.97v1.39h1.26v.67h-1.26v2.61c0,.6,.17,.94,.66,.94,.23,0,.4-.03,.51-.06l.04,.66c-.17,.07-.44,.12-.78,.12-.41,0-.74-.13-.95-.37-.25-.26-.34-.69-.34-1.26v-2.64h-.75v-.67h.75v-1.16l.86-.23Z"/><path class="cls-15" d="M81.62,304.36l1.06,2.86c.11,.32,.23,.7,.31,.99h.02c.09-.29,.19-.66,.31-1.01l.96-2.84h.93l-1.32,3.45c-.63,1.66-1.06,2.51-1.66,3.03-.43,.38-.86,.53-1.08,.57l-.22-.74c.22-.07,.51-.21,.77-.43,.24-.19,.54-.53,.74-.98,.04-.09,.07-.16,.07-.21s-.02-.12-.06-.23l-1.79-4.46h.96Z"/><path class="cls-15" d="M85.05,310.43c.22-.59,.49-1.66,.6-2.39l.98-.1c-.23,.85-.67,1.96-.95,2.43l-.63,.06Z"/><path class="cls-15" d="M92.49,309.2l-.07-.61h-.03c-.27,.38-.79,.72-1.48,.72-.98,0-1.48-.69-1.48-1.39,0-1.17,1.04-1.81,2.91-1.8v-.1c0-.4-.11-1.12-1.1-1.12-.45,0-.92,.14-1.26,.36l-.2-.58c.4-.26,.98-.43,1.59-.43,1.48,0,1.84,1.01,1.84,1.98v1.81c0,.42,.02,.83,.08,1.16h-.8Zm-.13-2.47c-.96-.02-2.05,.15-2.05,1.09,0,.57,.38,.84,.83,.84,.63,0,1.03-.4,1.17-.81,.03-.09,.05-.19,.05-.28v-.84Z"/><path class="cls-15" d="M94.9,304.36l.95,2.72c.16,.44,.29,.84,.39,1.24h.03c.11-.4,.25-.8,.41-1.24l.94-2.72h.92l-1.9,4.84h-.84l-1.84-4.84h.94Z"/><path class="cls-15" d="M102.02,309.2l-.07-.61h-.03c-.27,.38-.79,.72-1.48,.72-.98,0-1.48-.69-1.48-1.39,0-1.17,1.04-1.81,2.91-1.8v-.1c0-.4-.11-1.12-1.1-1.12-.45,0-.92,.14-1.26,.36l-.2-.58c.4-.26,.98-.43,1.59-.43,1.48,0,1.84,1.01,1.84,1.98v1.81c0,.42,.02,.83,.08,1.16h-.8Zm-.13-2.47c-.96-.02-2.05,.15-2.05,1.09,0,.57,.38,.84,.83,.84,.63,0,1.03-.4,1.17-.81,.03-.09,.05-.19,.05-.28v-.84Z"/><path class="cls-15" d="M105.14,303c0,.3-.21,.54-.56,.54-.31,0-.53-.24-.53-.54s.23-.55,.55-.55,.54,.24,.54,.55Zm-.98,6.2v-4.84h.88v4.84h-.88Z"/><path class="cls-15" d="M106.5,302.1h.88v7.1h-.88v-7.1Z"/><path class="cls-15" d="M111.54,309.2l-.07-.61h-.03c-.27,.38-.79,.72-1.48,.72-.98,0-1.48-.69-1.48-1.39,0-1.17,1.04-1.81,2.91-1.8v-.1c0-.4-.11-1.12-1.1-1.12-.45,0-.92,.14-1.26,.36l-.2-.58c.4-.26,.98-.43,1.59-.43,1.48,0,1.84,1.01,1.84,1.98v1.81c0,.42,.02,.83,.08,1.16h-.8Zm-.13-2.47c-.96-.02-2.05,.15-2.05,1.09,0,.57,.38,.84,.83,.84,.63,0,1.03-.4,1.17-.81,.03-.09,.05-.19,.05-.28v-.84Z"/><path class="cls-15" d="M113.64,309.2c.02-.33,.04-.82,.04-1.25v-5.85h.87v3.04h.02c.31-.54,.87-.89,1.65-.89,1.2,0,2.05,1,2.04,2.47,0,1.73-1.09,2.59-2.17,2.59-.7,0-1.26-.27-1.62-.91h-.03l-.04,.8h-.76Zm.91-1.94c0,.11,.02,.22,.04,.32,.17,.61,.68,1.03,1.32,1.03,.92,0,1.47-.75,1.47-1.86,0-.97-.5-1.8-1.44-1.8-.6,0-1.16,.41-1.34,1.08-.02,.1-.05,.22-.05,.36v.87Z"/><path class="cls-15" d="M120.35,303c0,.3-.21,.54-.56,.54-.31,0-.53-.24-.53-.54s.23-.55,.55-.55,.54,.24,.54,.55Zm-.98,6.2v-4.84h.88v4.84h-.88Z"/><path class="cls-15" d="M121.71,302.1h.88v7.1h-.88v-7.1Z"/><path class="cls-15" d="M125.05,303c0,.3-.21,.54-.56,.54-.31,0-.53-.24-.53-.54s.23-.55,.55-.55,.54,.24,.54,.55Zm-.98,6.2v-4.84h.88v4.84h-.88Z"/><path class="cls-15" d="M127.47,302.97v1.39h1.26v.67h-1.26v2.61c0,.6,.17,.94,.66,.94,.23,0,.4-.03,.51-.06l.04,.66c-.17,.07-.44,.12-.78,.12-.41,0-.74-.13-.95-.37-.25-.26-.34-.69-.34-1.26v-2.64h-.75v-.67h.75v-1.16l.86-.23Z"/><path class="cls-15" d="M130.12,304.36l1.06,2.86c.11,.32,.23,.7,.31,.99h.02c.09-.29,.19-.66,.31-1.01l.96-2.84h.93l-1.32,3.45c-.63,1.66-1.06,2.51-1.66,3.03-.43,.38-.86,.53-1.08,.57l-.22-.74c.22-.07,.51-.21,.77-.43,.24-.19,.54-.53,.74-.98,.04-.09,.07-.16,.07-.21s-.02-.12-.06-.23l-1.79-4.46h.96Z"/></g><g><path class="cls-15" d="M188.94,201.55c.39-.08,1.1-.14,1.79-.14,.91,0,1.47,.11,1.93,.43,.42,.25,.7,.69,.7,1.26,0,.62-.39,1.19-1.12,1.46v.02c.71,.18,1.36,.74,1.36,1.67,0,.6-.26,1.07-.65,1.39-.48,.42-1.27,.63-2.5,.63-.68,0-1.2-.05-1.51-.09v-6.63Zm1.22,2.66h.63c.85,0,1.33-.4,1.33-.97,0-.63-.48-.92-1.26-.92-.36,0-.57,.02-.7,.05v1.84Zm0,3.1c.16,.02,.37,.03,.65,.03,.79,0,1.49-.3,1.49-1.13,0-.78-.68-1.1-1.53-1.1h-.61v2.2Z"/><path class="cls-15" d="M195.92,201.46v3.93c0,1.32,.55,1.93,1.38,1.93,.89,0,1.42-.61,1.42-1.93v-3.93h1.23v3.85c0,2.08-1.07,3-2.69,3s-2.57-.87-2.57-2.99v-3.86h1.23Z"/><path class="cls-15" d="M201.33,206.86c.4,.23,1,.43,1.63,.43,.79,0,1.23-.37,1.23-.92,0-.51-.34-.81-1.2-1.12-1.11-.4-1.82-.99-1.82-1.96,0-1.1,.92-1.94,2.38-1.94,.73,0,1.27,.16,1.62,.34l-.3,.99c-.24-.13-.71-.32-1.34-.32-.78,0-1.12,.42-1.12,.81,0,.52,.39,.76,1.29,1.11,1.17,.44,1.74,1.03,1.74,2,0,1.08-.82,2.02-2.56,2.02-.71,0-1.45-.2-1.82-.42l.27-1.02Z"/><path class="cls-15" d="M207.78,201.46v6.74h-1.23v-6.74h1.23Z"/><path class="cls-15" d="M209.19,208.2v-6.74h1.4l1.74,2.89c.45,.75,.84,1.53,1.15,2.26h.02c-.08-.9-.11-1.77-.11-2.8v-2.35h1.14v6.74h-1.27l-1.76-2.96c-.43-.74-.88-1.57-1.21-2.33h-.03c.05,.88,.06,1.77,.06,2.88v2.41h-1.13Z"/><path class="cls-15" d="M219.72,205.21h-2.54v1.98h2.84v1.01h-4.07v-6.74h3.92v1.01h-2.69v1.74h2.54v1Z"/><path class="cls-15" d="M221.07,206.86c.4,.23,1,.43,1.63,.43,.79,0,1.23-.37,1.23-.92,0-.51-.34-.81-1.2-1.12-1.11-.4-1.82-.99-1.82-1.96,0-1.1,.92-1.94,2.38-1.94,.73,0,1.27,.16,1.62,.34l-.3,.99c-.24-.13-.71-.32-1.34-.32-.78,0-1.12,.42-1.12,.81,0,.52,.39,.76,1.29,1.11,1.17,.44,1.74,1.03,1.74,2,0,1.08-.82,2.02-2.56,2.02-.71,0-1.45-.2-1.82-.42l.27-1.02Z"/><path class="cls-15" d="M226.26,206.86c.4,.23,1,.43,1.63,.43,.79,0,1.23-.37,1.23-.92,0-.51-.34-.81-1.2-1.12-1.11-.4-1.82-.99-1.82-1.96,0-1.1,.92-1.94,2.38-1.94,.73,0,1.27,.16,1.62,.34l-.3,.99c-.24-.13-.71-.32-1.34-.32-.78,0-1.12,.42-1.12,.81,0,.52,.39,.76,1.29,1.11,1.17,.44,1.74,1.03,1.74,2,0,1.08-.82,2.02-2.56,2.02-.71,0-1.45-.2-1.82-.42l.27-1.02Z"/></g><g><path class="cls-15" d="M190.34,213.55c.44-.08,1.05-.14,1.88-.14,.9,0,1.56,.19,1.99,.55,.4,.33,.66,.86,.66,1.49s-.2,1.17-.58,1.53c-.49,.49-1.26,.72-2.13,.72-.23,0-.44-.01-.6-.04v2.54h-1.22v-6.65Zm1.22,3.14c.15,.04,.35,.05,.6,.05,.92,0,1.48-.45,1.48-1.24s-.52-1.15-1.37-1.15c-.34,0-.58,.03-.71,.06v2.28Z"/><path class="cls-15" d="M195.93,213.55c.46-.08,1.15-.14,1.86-.14,.97,0,1.63,.16,2.08,.54,.37,.31,.58,.78,.58,1.35,0,.87-.59,1.46-1.22,1.69v.03c.48,.18,.77,.65,.94,1.3,.21,.84,.39,1.62,.53,1.88h-1.27c-.1-.2-.26-.75-.45-1.59-.19-.88-.51-1.16-1.21-1.18h-.62v2.77h-1.22v-6.65Zm1.22,2.98h.73c.83,0,1.35-.44,1.35-1.11,0-.74-.52-1.08-1.32-1.08-.39,0-.64,.03-.76,.06v2.13Z"/><path class="cls-15" d="M207.6,216.76c0,2.26-1.37,3.55-3.23,3.55s-3.1-1.45-3.1-3.43,1.3-3.53,3.2-3.53,3.13,1.49,3.13,3.41Zm-5.03,.1c0,1.37,.69,2.46,1.87,2.46s1.86-1.1,1.86-2.51c0-1.27-.63-2.47-1.86-2.47s-1.87,1.13-1.87,2.52Z"/><path class="cls-15" d="M213.49,220c-.29,.15-.93,.3-1.74,.3-2.14,0-3.44-1.34-3.44-3.39,0-2.22,1.54-3.56,3.6-3.56,.81,0,1.39,.17,1.64,.3l-.27,.98c-.32-.14-.76-.26-1.32-.26-1.37,0-2.36,.86-2.36,2.48,0,1.48,.87,2.43,2.35,2.43,.5,0,1.02-.1,1.34-.25l.2,.97Z"/><path class="cls-15" d="M218.31,217.21h-2.54v1.98h2.84v1.01h-4.07v-6.74h3.92v1.01h-2.69v1.74h2.54v1Z"/><path class="cls-15" d="M219.66,218.86c.4,.23,1,.43,1.63,.43,.79,0,1.23-.37,1.23-.92,0-.51-.34-.81-1.2-1.12-1.11-.4-1.82-.99-1.82-1.96,0-1.1,.92-1.94,2.38-1.94,.73,0,1.27,.16,1.62,.34l-.3,.99c-.24-.13-.71-.32-1.34-.32-.78,0-1.12,.42-1.12,.81,0,.52,.39,.76,1.29,1.11,1.17,.44,1.74,1.03,1.74,2,0,1.08-.82,2.02-2.56,2.02-.71,0-1.45-.2-1.82-.42l.27-1.02Z"/><path class="cls-15" d="M224.85,218.86c.4,.23,1,.43,1.63,.43,.79,0,1.23-.37,1.23-.92,0-.51-.34-.81-1.2-1.12-1.11-.4-1.82-.99-1.82-1.96,0-1.1,.92-1.94,2.38-1.94,.73,0,1.27,.16,1.62,.34l-.3,.99c-.24-.13-.71-.32-1.34-.32-.78,0-1.12,.42-1.12,.81,0,.52,.39,.76,1.29,1.11,1.17,.44,1.74,1.03,1.74,2,0,1.08-.82,2.02-2.56,2.02-.71,0-1.45-.2-1.82-.42l.27-1.02Z"/></g><g><path class="cls-15" d="M176.9,225.55c.44-.08,1.05-.14,1.88-.14,.9,0,1.56,.19,1.99,.55,.4,.33,.66,.86,.66,1.49s-.2,1.17-.58,1.53c-.49,.49-1.26,.72-2.13,.72-.23,0-.44-.01-.6-.04v2.54h-1.22v-6.65Zm1.22,3.14c.15,.04,.35,.05,.6,.05,.92,0,1.48-.45,1.48-1.24s-.52-1.15-1.37-1.15c-.34,0-.58,.03-.71,.06v2.28Z"/><path class="cls-15" d="M186.26,229.21h-2.54v1.98h2.84v1.01h-4.07v-6.74h3.92v1.01h-2.69v1.74h2.54v1Z"/><path class="cls-15" d="M187.64,225.55c.46-.08,1.15-.14,1.86-.14,.97,0,1.63,.16,2.08,.54,.37,.31,.58,.78,.58,1.35,0,.87-.59,1.46-1.22,1.69v.03c.48,.18,.77,.65,.94,1.3,.21,.84,.39,1.62,.53,1.88h-1.27c-.1-.2-.26-.75-.45-1.59-.19-.88-.51-1.16-1.21-1.18h-.62v2.77h-1.22v-6.65Zm1.22,2.98h.73c.83,0,1.35-.44,1.35-1.11,0-.74-.52-1.08-1.32-1.08-.39,0-.64,.03-.76,.06v2.13Z"/><path class="cls-15" d="M193.33,225.46h3.89v1.01h-2.66v1.86h2.48v1.01h-2.48v2.86h-1.23v-6.74Z"/><path class="cls-15" d="M204.4,228.76c0,2.26-1.37,3.55-3.23,3.55s-3.1-1.45-3.1-3.43,1.3-3.53,3.2-3.53,3.13,1.49,3.13,3.41Zm-5.03,.1c0,1.37,.69,2.46,1.87,2.46s1.86-1.1,1.86-2.51c0-1.27-.63-2.47-1.86-2.47s-1.87,1.13-1.87,2.52Z"/><path class="cls-15" d="M205.46,225.55c.46-.08,1.15-.14,1.86-.14,.97,0,1.63,.16,2.08,.54,.37,.31,.58,.78,.58,1.35,0,.87-.59,1.46-1.22,1.69v.03c.48,.18,.77,.65,.94,1.3,.21,.84,.39,1.62,.53,1.88h-1.27c-.1-.2-.26-.75-.45-1.59-.19-.88-.51-1.16-1.21-1.18h-.62v2.77h-1.22v-6.65Zm1.22,2.98h.73c.83,0,1.35-.44,1.35-1.11,0-.74-.52-1.08-1.32-1.08-.39,0-.64,.03-.76,.06v2.13Z"/><path class="cls-15" d="M216.84,229.45c-.04-.87-.09-1.92-.08-2.83h-.03c-.22,.82-.5,1.73-.8,2.58l-.98,2.92h-.95l-.9-2.88c-.26-.86-.5-1.78-.68-2.62h-.02c-.03,.88-.07,1.95-.12,2.87l-.15,2.71h-1.15l.45-6.74h1.62l.88,2.71c.24,.79,.45,1.59,.62,2.34h.03c.18-.73,.41-1.56,.67-2.35l.93-2.7h1.6l.39,6.74h-1.2l-.13-2.75Z"/><path class="cls-15" d="M220.71,230.29l-.58,1.91h-1.27l2.16-6.74h1.57l2.19,6.74h-1.32l-.61-1.91h-2.14Zm1.93-.93l-.53-1.66c-.13-.41-.24-.87-.34-1.26h-.02c-.1,.39-.2,.86-.32,1.26l-.52,1.66h1.73Z"/><path class="cls-15" d="M225.72,232.2v-6.74h1.4l1.74,2.89c.45,.75,.84,1.53,1.15,2.26h.02c-.08-.9-.11-1.77-.11-2.8v-2.35h1.14v6.74h-1.27l-1.76-2.96c-.43-.74-.88-1.57-1.21-2.33h-.03c.05,.88,.06,1.77,.06,2.88v2.41h-1.13Z"/><path class="cls-15" d="M237.31,232c-.29,.15-.93,.3-1.74,.3-2.14,0-3.44-1.34-3.44-3.39,0-2.22,1.54-3.56,3.6-3.56,.81,0,1.39,.17,1.64,.3l-.27,.98c-.32-.14-.76-.26-1.32-.26-1.37,0-2.36,.86-2.36,2.48,0,1.48,.87,2.43,2.35,2.43,.5,0,1.02-.1,1.34-.25l.2,.97Z"/><path class="cls-15" d="M242.13,229.21h-2.54v1.98h2.84v1.01h-4.07v-6.74h3.92v1.01h-2.69v1.74h2.54v1Z"/></g><g class="cls-13"><path class="cls-4" d="M219.92,333.42h7.5s.01-41.25,.01-41.25h-7.47c-.17,.89-.05,19.14-.05,20.55,0,6.86-.14,13.86,.02,20.7Z"/></g><polygon class="cls-4" points="208.63 307.13 208.63 311.96 208.63 313.77 208.63 315.85 208.63 333.42 216.15 333.42 216.16 306.56 208.63 306.55 208.63 307.13"/><polygon class="cls-4" points="197.11 333.42 204.59 333.43 204.63 316.35 197.11 316.31 197.11 333.42"/><g class="cls-11"><path class="cls-4" d="M202.12,297.28l2.69,.74c.19,1.91-1.14,5.03-1.97,6.34-1.8,2.87-6.67,5.88-9.9,6.89-1.15,.36-2.1,.61-3.36,.79-.75,.11-3.23,.33-3.73,.58,5.84,.3,11.25-.84,15.48-3.24,3.46-1.96,6.26-4.9,7.9-8.41,.16-.35,.53-1.33,.74-1.61l3.28,.81c-.08-.56-2.86-9.08-2.99-9.27-.33,.16-.72,.51-1.03,.77l-7.1,5.6Z"/></g><polygon class="cls-4" points="185.93 333.42 193.46 333.42 193.46 322.1 185.94 322.08 185.93 333.42"/><g class="cls-14"><path class="cls-4" d="M269.64,183.41c.34,.52,1.31,1.38,1.81,1.88l4.73,4.49c.35,.32,.57,.65,.96,.89,.3-.08,1.77-1.47,2.21-1.83,1.3-1.05,1.67-1.43,3.36-2.28,1.04-.53,1.5-.39,2.95-.38l9.35-.44c1.39-.15,1.39,0,2.85-.49,2.66-.9,6.41-2.94,8.57-4.56,.65-.49,1.2-.87,1.86-1.36l1.32-1.1c.75-.61,1.8-1.35,1.17-2.53-.3-.57-1.35-1.16-2.19-1.16-2.03,0-4.67,1.56-6.35,2.53-.23,.13-.45,.22-.68,.36-3.39,1.96-5.84,2.29-9.77,1.82-.46-.06-1.11-.21-1.63-.21v-.22c.36-.03,.95-.24,1.28-.33,2.79-.82,6.79-1.39,6.79-5.2,0-2.31-3.88-1.11-5.55-.83-1.39,.23-2.74,.51-4.14,.7-2.99,.41-6.56,.43-8.9,.78-1.88,.28-2.32,.38-3.54,1.3-1.86,1.41-6.21,7.16-6.45,8.19Z"/><path class="cls-4" d="M297.4,161.41l.11,1.96c.92,0,.57-.21,1.77-1.81,.29-.38,.5-.72,.77-1.07,.68-.89,2.64-3.18,3.44-3.82,.57-.46,.66-.68,1.04-.79l-1.59,1.86c-.53,.65-1.03,1.26-1.5,1.95-3.76,5.54-2.43,4.83-1.05,4.83,1.79,0,3.65-1.14,4.77-1.91,.35-.24,.58-.43,.93-.69,1.03-.77,1.86-1.79,2.57-2.5,2.38-2.39,3.95-6.86,3.95-10.24-3.44,0-7.98,1.28-10.46,3.37-1.98,1.67-4.76,5.29-4.76,8.84Z"/><path class="cls-4" d="M282.66,154.73c0,2.69,1.1,5.31,2.27,7.41,1.36,2.45,5.97,6.88,9.37,6.88,.54,0,1.39,.12,1.39-.24,0-1.25-3.26-5.67-4.58-7.18-.29-.33-.58-.53-.83-.88,.39,.11,.2,.07,.48,.31,1.44,1.27,1.33,1.17,2.59,2.59,1.18,1.33,1.66,2.01,2.63,3.47,.29,.45,.38,.83,.98,.88,.34-.65,.23-.84,.23-1.85,0-3.47-2.6-6.87-4.53-8.5-1.07-.9-2.74-1.75-4.22-2.24-1.29-.43-3.84-1.02-5.55-1.02-.17,0-.24,.16-.24,.35Z"/><path class="cls-4" d="M295.91,157.96c.31,0,.32-.05,.58-.11-.13-1.59-2.99-4.62-3.11-5.07,1,.71,2.14,2.3,2.9,3.31,.18,.24,.28,.39,.42,.62,.21,.38,.13,.44,.71,.45,.16-1.12,.2-1.51-.16-2.73-1.24-4.22-5.34-6.27-9.53-6.27,0,1.22,.45,2.78,.82,3.68,1.13,2.77,4.34,6.12,7.36,6.12Z"/><path class="cls-5" d="M119.52,165.93l-2.51,2.52,2.15,2.15,2.51-2.51c1.09,.78,2.36,1.32,3.74,1.56v3.54h3.05v-3.54c1.38-.23,2.65-.77,3.74-1.56l2.51,2.51,2.15-2.15-2.51-2.52c.77-1.09,1.3-2.36,1.52-3.73h3.58v-3.05h-3.59c-.24-1.36-.78-2.61-1.55-3.69l2.55-2.55-2.15-2.16-2.56,2.56c-1.08-.76-2.33-1.29-3.69-1.52v-3.63h-3.05v3.63c-1.36,.23-2.61,.76-3.69,1.52l-2.56-2.56-2.15,2.16,2.55,2.55c-.77,1.08-1.31,2.33-1.55,3.69h-3.59v3.05h3.58c.23,1.37,.76,2.64,1.52,3.73Zm7.41-11.17c3.29,0,5.96,2.67,5.96,5.96s-2.67,5.96-5.96,5.96-5.96-2.67-5.96-5.96,2.67-5.96,5.96-5.96Z"/><path class="cls-5" d="M111.28,162.29c-.44,1.89-.94,2.42-.94,5.18,0,3.88,1.39,7.02,3.07,9.25,1.72,2.28,3.48,3.62,5.99,4.8,.39,.18,.77,.31,1.13,.48v7.39c.05,.68,.54,1.28,1.27,1.28h14.7c.62,0,1.19-.7,1.19-1.36v-6.46h3.82c.63,0,1.19-.7,1.19-1.36v-5.35h3.91c.72,0,1.27-.61,1.27-1.28,0-.73-3.16-5.07-3.6-5.74l-1.39-2.09c-.28-.4-.25-.29-.27-.92-.07-1.68-.58-2.68-.85-3.83"/></g><g class="cls-9"><path class="cls-1" d="M512.64,725.36v15m0-819v-15M-99.36,725.36v15m0-819v-15M518.64,719.36h15m-639,0h-15M518.64-72.64h15m-639,0h-15"/><path class="cls-2" d="M512.64,725.36v15m0-819v-15M-99.36,725.36v15m0-819v-15M518.64,719.36h15m-639,0h-15M518.64-72.64h15m-639,0h-15"/></g></g></svg>