<svg width="136" height="27" viewBox="0 0 136 27" fill="none" xmlns="http://www.w3.org/2000/svg">
    <path d="M8.784 21.904H13.936C15.4507 21.904 16.7947 21.4773 17.968 20.624C18.6507 21.2 18.992 21.9573 18.992 22.896C18.992 23.8347 18.6507 24.592 17.968 25.168C17.2853 25.7227 16.2613 26 14.896 26H7.952C5.81867 26 4.25067 25.5413 3.248 24.624C2.26667 23.7067 1.776 22.256 1.776 20.272V6.064C1.776 4.976 1.41333 4.24 0.688 3.856C1.47733 2.91733 2.448 2.448 3.6 2.448H14.288C15.9733 2.448 17.1787 2.672 17.904 3.12C18.6293 3.54667 18.992 4.18667 18.992 5.04C18.992 5.89333 18.6507 6.608 17.968 7.184C16.944 6.77867 15.6 6.576 13.936 6.576H6.8V11.376H11.216C12.9227 11.376 14.128 11.5573 14.832 11.92C15.5573 12.2827 15.92 12.9013 15.92 13.776C15.92 14.6293 15.5787 15.3227 14.896 15.856C14.128 15.6 12.784 15.472 10.864 15.472H6.8V19.632C6.8 21.1467 7.46133 21.904 8.784 21.904ZM28.5863 12.336V20.976C28.5863 22.32 29.1089 22.992 30.1543 22.992C31.3063 22.992 32.3729 22.4693 33.3543 21.424C33.6529 21.424 33.8983 21.552 34.0903 21.808C34.3036 22.0427 34.4103 22.3627 34.4103 22.768C34.4103 23.6427 33.8769 24.464 32.8103 25.232C31.7436 25.9787 30.4209 26.352 28.8423 26.352C27.2849 26.352 26.0156 25.9573 25.0343 25.168C24.0529 24.3787 23.5623 23.1733 23.5623 21.552V12.336C22.7943 12.3147 22.2183 12.1333 21.8343 11.792C21.4503 11.4293 21.2583 10.9813 21.2583 10.448C21.2583 9.91467 21.4823 9.488 21.9303 9.168C22.4423 9.232 22.9863 9.264 23.5623 9.264V8.304C23.5623 7.19467 23.1996 6.448 22.4743 6.064C23.2849 5.14667 24.2449 4.688 25.3543 4.688C26.4849 4.688 27.3063 4.99733 27.8183 5.616C28.3303 6.23467 28.5863 7.19467 28.5863 8.496V9.264H33.4183C33.5676 9.43467 33.6423 9.648 33.6423 9.904C33.6423 10.5653 33.2796 11.1413 32.5543 11.632C31.8503 12.1013 30.6129 12.336 28.8423 12.336H28.5863ZM52.8293 14.672V22.704C52.8293 23.856 53.1706 24.6133 53.8533 24.976C53.0853 25.8933 52.1146 26.352 50.9412 26.352C48.8506 26.352 47.8053 25.0827 47.8053 22.544V15.408C47.8053 14.64 47.6133 14.0427 47.2293 13.616C46.8666 13.168 46.3439 12.944 45.6613 12.944C44.9786 12.944 44.3173 13.264 43.6773 13.904C43.0373 14.5227 42.5786 15.4507 42.3013 16.688V22.704C42.3013 23.856 42.6533 24.6133 43.3573 24.976C42.5466 25.8933 41.5653 26.352 40.4133 26.352C38.3226 26.352 37.2773 25.0827 37.2773 22.544V4.528C37.2773 3.46133 36.9146 2.704 36.1893 2.256C36.9999 1.36 37.9813 0.911999 39.1333 0.911999C41.2453 0.911999 42.3013 2.18133 42.3013 4.72V12.24C42.8773 11.152 43.6666 10.3307 44.6693 9.776C45.6933 9.2 46.8666 8.912 48.1893 8.912C49.5333 8.912 50.6426 9.40267 51.5173 10.384C52.3919 11.3653 52.8293 12.7947 52.8293 14.672ZM60.341 0.911999C61.173 0.911999 61.8557 1.168 62.389 1.68C62.9437 2.17067 63.221 2.832 63.221 3.664C63.221 4.47467 62.869 5.22133 62.165 5.904C61.4823 6.58667 60.693 6.928 59.797 6.928C58.901 6.928 58.1757 6.672 57.621 6.16C57.0877 5.62667 56.821 4.93333 56.821 4.08C56.821 3.22667 57.1943 2.49067 57.941 1.872C58.709 1.232 59.509 0.911999 60.341 0.911999ZM62.645 12.72V22.704C62.645 23.856 62.997 24.6133 63.701 24.976C62.8903 25.8933 61.909 26.352 60.757 26.352C58.6663 26.352 57.621 25.0827 57.621 22.544V12.528C57.621 11.4187 57.2583 10.672 56.533 10.288C57.3437 9.37067 58.3037 8.912 59.413 8.912C60.5437 8.912 61.365 9.22133 61.877 9.84C62.389 10.4587 62.645 11.4187 62.645 12.72ZM81.1875 9.64062C80.7917 7.73438 80.0625 6.25521 79 5.20312C77.9479 4.15104 76.6823 3.625 75.2031 3.625C73.7552 3.625 72.6302 3.96875 71.8281 4.65625C71.0365 5.34375 70.6406 6.26042 70.6406 7.40625C70.6406 8.04167 70.6979 8.56771 70.8125 8.98438C70.9271 9.40104 71.1615 9.80729 71.5156 10.2031C71.8698 10.5885 72.3854 10.9323 73.0625 11.2344C73.7396 11.526 74.625 11.8073 75.7188 12.0781C76.3125 12.224 76.8281 12.3594 77.2656 12.4844C77.7135 12.6094 78.2031 12.7812 78.7344 13C79.276 13.2188 79.7396 13.4531 80.125 13.7031C80.5208 13.9531 80.9115 14.2656 81.2969 14.6406C81.6927 15.0052 82.0104 15.4115 82.25 15.8594C82.5 16.3073 82.6979 16.8385 82.8438 17.4531C83 18.0573 83.0781 18.7188 83.0781 19.4375C83.0781 20.3958 82.901 21.2812 82.5469 22.0938C82.1927 22.8958 81.7292 23.5729 81.1562 24.125C80.5833 24.6771 79.9219 25.1458 79.1719 25.5312C78.4219 25.9167 77.6615 26.1979 76.8906 26.375C76.1198 26.5521 75.3542 26.6406 74.5938 26.6406C72.2812 26.6406 69.8177 26.0417 67.2031 24.8438C67.2552 23.7188 67.2812 23.026 67.2812 22.7656C67.2812 21.0677 67.1406 19.375 66.8594 17.6875C66.974 17.6146 67.0885 17.5781 67.2031 17.5781C67.349 17.5781 67.4792 17.6146 67.5938 17.6875C67.8125 19.0312 68.1719 20.2188 68.6719 21.25C69.1823 22.2812 69.7656 23.099 70.4219 23.7031C71.0781 24.2969 71.7552 24.7448 72.4531 25.0469C73.1615 25.3385 73.875 25.4844 74.5938 25.4844C76.2292 25.4844 77.4844 25.0625 78.3594 24.2188C79.2448 23.3646 79.6875 22.2396 79.6875 20.8438C79.6875 19.4375 79.3594 18.3802 78.7031 17.6719C78.0573 16.9531 76.8177 16.3698 74.9844 15.9219C72.6927 15.349 70.901 14.5052 69.6094 13.3906C68.3281 12.2656 67.6875 10.7812 67.6875 8.9375C67.6875 7.96875 67.8438 7.10417 68.1562 6.34375C68.4792 5.57292 68.8906 4.95833 69.3906 4.5C69.901 4.03125 70.4948 3.64583 71.1719 3.34375C71.849 3.03125 72.5156 2.81771 73.1719 2.70312C73.8385 2.57812 74.5156 2.51562 75.2031 2.51562C77.2656 2.51562 79.4115 2.99479 81.6406 3.95312C81.5781 4.56771 81.5469 5.20833 81.5469 5.875C81.5469 7.4375 81.6719 8.69271 81.9219 9.64062C81.7865 9.69271 81.6719 9.71875 81.5781 9.71875C81.474 9.71875 81.3438 9.69271 81.1875 9.64062ZM98.7969 21.9375C99.0469 21.9896 99.25 22.1042 99.4062 22.2812C98.8854 23.6771 98.0781 24.724 96.9844 25.4219C95.8906 26.1094 94.7031 26.4531 93.4219 26.4531C92.7865 26.4531 92.1667 26.3698 91.5625 26.2031C90.9583 26.0469 90.3698 25.7865 89.7969 25.4219C89.2344 25.0573 88.7396 24.6094 88.3125 24.0781C87.8958 23.5365 87.5573 22.8646 87.2969 22.0625C87.0469 21.25 86.9219 20.3542 86.9219 19.375C86.9219 17.1146 87.6146 15.2865 89 13.8906C90.3854 12.4948 92.1146 11.7969 94.1875 11.7969C95.6458 11.7969 96.8333 12.1146 97.75 12.75C98.6771 13.375 99.1406 14.1771 99.1406 15.1562C99.1406 15.7083 98.9583 16.1667 98.5938 16.5312C98.2292 16.8958 97.7812 17.0781 97.25 17.0781C96.6875 17.0781 96.2344 16.9167 95.8906 16.5938C95.5469 16.2604 95.375 15.875 95.375 15.4375C95.375 14.6458 95.776 14.1458 96.5781 13.9375C96.5052 13.6979 96.2708 13.4531 95.875 13.2031C95.4792 12.9427 94.9167 12.8125 94.1875 12.8125C93.8125 12.8125 93.4583 12.8594 93.125 12.9531C92.7917 13.0365 92.4323 13.2188 92.0469 13.5C91.6719 13.7812 91.349 14.151 91.0781 14.6094C90.8177 15.0677 90.599 15.7083 90.4219 16.5312C90.2448 17.3438 90.1562 18.2917 90.1562 19.375C90.1562 20.1042 90.2292 20.7656 90.375 21.3594C90.5312 21.9531 90.7708 22.4896 91.0938 22.9688C91.4167 23.4479 91.8594 23.8229 92.4219 24.0938C92.9844 24.3646 93.6458 24.5 94.4062 24.5C94.8854 24.5 95.3385 24.4375 95.7656 24.3125C96.1927 24.1771 96.5365 24.0365 96.7969 23.8906C97.0677 23.7448 97.3542 23.526 97.6562 23.2344C97.9688 22.9323 98.1771 22.7188 98.2812 22.5938C98.3854 22.4583 98.5573 22.2396 98.7969 21.9375ZM103.031 15.7344C103.031 14.5885 103.552 13.6458 104.594 12.9062C105.646 12.1667 106.885 11.7969 108.312 11.7969C110.062 11.7969 111.292 12.1458 112 12.8438C112.719 13.5417 113.078 14.7188 113.078 16.375V22.8594C113.078 23.4427 113.292 23.7344 113.719 23.7344C114.062 23.7344 114.5 23.3177 115.031 22.4844C115.406 22.5156 115.661 22.6823 115.797 22.9844C115.724 23.0885 115.599 23.276 115.422 23.5469C115.245 23.8177 115.115 24.0104 115.031 24.125C114.948 24.2396 114.818 24.4167 114.641 24.6562C114.464 24.8854 114.318 25.0573 114.203 25.1719C114.099 25.2865 113.953 25.4219 113.766 25.5781C113.589 25.7344 113.422 25.8542 113.266 25.9375C113.12 26.0104 112.948 26.0729 112.75 26.125C112.552 26.1875 112.354 26.2188 112.156 26.2188C111.635 26.2188 111.203 26.0312 110.859 25.6562C110.526 25.2812 110.328 24.7031 110.266 23.9219C110.255 23.9323 110.094 24.0833 109.781 24.375C109.469 24.6667 109.25 24.8646 109.125 24.9688C109.01 25.0625 108.786 25.2344 108.453 25.4844C108.13 25.724 107.854 25.8958 107.625 26C107.396 26.1042 107.109 26.2031 106.766 26.2969C106.422 26.401 106.083 26.4531 105.75 26.4531C105.219 26.4531 104.745 26.3802 104.328 26.2344C103.922 26.0885 103.604 25.9115 103.375 25.7031C103.146 25.4948 102.958 25.2552 102.812 24.9844C102.667 24.7031 102.568 24.4479 102.516 24.2188C102.474 23.9896 102.453 23.7604 102.453 23.5312C102.453 22.8333 102.568 22.2448 102.797 21.7656C103.036 21.2865 103.474 20.8385 104.109 20.4219C104.755 20.0052 105.547 19.6354 106.484 19.3125C107.422 18.9896 108.682 18.625 110.266 18.2188V16.0469C110.266 14.9948 110.031 14.2083 109.562 13.6875C109.104 13.1667 108.484 12.9062 107.703 12.9062C107.005 12.9062 106.417 13.0469 105.938 13.3281C105.469 13.599 105.182 13.9167 105.078 14.2812C106.099 14.4375 106.609 14.9948 106.609 15.9531C106.609 16.3906 106.453 16.776 106.141 17.1094C105.828 17.4427 105.391 17.6094 104.828 17.6094C104.359 17.6094 103.943 17.4479 103.578 17.125C103.214 16.7917 103.031 16.3281 103.031 15.7344ZM110.266 22.4844V19.2188C109.307 19.4375 108.516 19.6771 107.891 19.9375C107.266 20.1875 106.786 20.4635 106.453 20.7656C106.13 21.0677 105.906 21.3802 105.781 21.7031C105.656 22.0156 105.594 22.3802 105.594 22.7969C105.594 23.3177 105.745 23.7292 106.047 24.0312C106.359 24.3229 106.74 24.4688 107.188 24.4688C108.229 24.4688 109.255 23.8073 110.266 22.4844ZM126.062 25.3594C126.125 25.4844 126.156 25.6146 126.156 25.75C126.156 25.8542 126.125 25.9688 126.062 26.0938C124.688 26.0312 123.354 26 122.062 26C120.792 26 119.469 26.0312 118.094 26.0938C118.052 25.9271 118.031 25.8125 118.031 25.75C118.031 25.6979 118.052 25.5677 118.094 25.3594C118.438 25.3177 118.719 25.276 118.938 25.2344C119.156 25.1823 119.427 25.1042 119.75 25C120.073 24.8958 120.318 24.75 120.484 24.5625C120.651 24.3646 120.74 24.1302 120.75 23.8594C120.792 22.8281 120.812 21.5781 120.812 20.1094C120.812 19.6198 120.807 18.7865 120.797 17.6094C120.786 16.4323 120.781 15.401 120.781 14.5156C120.188 14.151 119.188 13.9375 117.781 13.875C117.74 13.7083 117.719 13.5781 117.719 13.4844C117.719 13.4219 117.74 13.3073 117.781 13.1406C119.802 12.9323 121.562 12.5052 123.062 11.8594C123.323 11.9635 123.505 12.099 123.609 12.2656V14.7344C124.62 13.849 125.589 13.1406 126.516 12.6094C127.443 12.0677 128.38 11.7969 129.328 11.7969C130.516 11.7969 131.354 12.1302 131.844 12.7969C132.344 13.4635 132.604 14.5052 132.625 15.9219L132.781 23.8594C132.792 24.1302 132.87 24.3646 133.016 24.5625C133.172 24.75 133.391 24.8958 133.672 25C133.964 25.1042 134.203 25.1823 134.391 25.2344C134.578 25.276 134.823 25.3177 135.125 25.3594C135.167 25.5677 135.188 25.7083 135.188 25.7812C135.188 25.8646 135.167 25.9688 135.125 26.0938C133.781 26.0312 132.542 26 131.406 26C130.302 26 129.078 26.0312 127.734 26.0938C127.693 25.9271 127.672 25.8021 127.672 25.7188C127.672 25.6458 127.693 25.526 127.734 25.3594C128.005 25.3177 128.229 25.276 128.406 25.2344C128.594 25.1823 128.802 25.1042 129.031 25C129.271 24.8958 129.448 24.75 129.562 24.5625C129.688 24.3646 129.75 24.1302 129.75 23.8594L129.781 16.4375C129.781 14.5521 129.214 13.6094 128.078 13.6094C127.016 13.6094 125.526 14.3177 123.609 15.7344C123.609 18.7656 123.651 21.474 123.734 23.8594C123.745 24.1302 123.823 24.3646 123.969 24.5625C124.125 24.75 124.344 24.8958 124.625 25C124.906 25.1042 125.141 25.1823 125.328 25.2344C125.516 25.276 125.76 25.3177 126.062 25.3594Z" fill="white"/>
</svg>
